<?xml version="1.0" encoding="UTF-8"?>
<svg version="1.1" xmlns="http://www.w3.org/2000/svg" width="100" height="100">
<path d="M0 0 C33 0 66 0 100 0 C100 33 100 66 100 100 C67 100 34 100 0 100 C0 67 0 34 0 0 Z " fill="#FBFCFC" transform="translate(0,0)"/>
<path d="M0 0 C6.03416723 2.01138908 8.76212526 5.80303608 12.3125 10.875 C14.09179135 16.37462782 13.28319859 21.86969102 11.1171875 27.109375 C8.45964815 31.60674929 3.85224842 35.13839137 -1 37 C-4.234375 37.1953125 -4.234375 37.1953125 -7.75 37.125 C-8.92046875 37.10695312 -10.0909375 37.08890625 -11.296875 37.0703125 C-12.18890625 37.04710937 -13.0809375 37.02390625 -14 37 C-14 38.65 -14 40.3 -14 42 C-8.06 42 -2.12 42 4 42 C4 44.31 4 46.62 4 49 C0.1149148 50.9425426 -4.66395537 50.27195404 -8.9375 50.3125 C-9.95263672 50.34150391 -10.96777344 50.37050781 -12.01367188 50.40039062 C-12.98755859 50.40876953 -13.96144531 50.41714844 -14.96484375 50.42578125 C-15.8580835 50.44036377 -16.75132324 50.45494629 -17.67163086 50.4699707 C-20 50 -20 50 -21.78540039 48.43139648 C-24.27355528 43.45058553 -23.51745255 37.50977845 -23.50097656 32.03857422 C-23.50000875 29.7704997 -23.54154281 27.50586354 -23.5859375 25.23828125 C-23.64948954 17.53497676 -23.62943089 10.88405406 -18 5 C-12.12627929 -0.32732809 -7.75290565 -0.59299845 0 0 Z " fill="#3583C7" transform="translate(60,15)"/>
<path d="M0 0 C5.75889634 -0.34553378 10.06169381 -0.36702695 15 3 C19.21771911 7.18257145 21.8168591 10.8023092 22.3125 16.75 C22.17976324 21.19668153 21.19953801 25.1164407 19 29 C16.3125 31.5 16.3125 31.5 14 33 C13.67 31.02 13.34 29.04 13 27 C12.01 27.33 11.02 27.66 10 28 C7.42734182 28.07029121 4.88358569 28.09370832 2.3125 28.0625 C1.61060547 28.05798828 0.90871094 28.05347656 0.18554688 28.04882812 C-1.54300538 28.03706927 -3.27151365 28.01913454 -5 28 C-5.08165496 25.79229195 -5.13948488 23.58369575 -5.1875 21.375 C-5.23970703 19.53035156 -5.23970703 19.53035156 -5.29296875 17.6484375 C-4.9787947 13.73592336 -3.96906533 11.35929782 -2 8 C-1.34 8 -0.68 8 0 8 C-0.57344937 5.13275314 -0.8614515 4.1385485 -3 2 C-2.01 2 -1.02 2 0 2 C0 1.34 0 0.68 0 0 Z " fill="#4E75C8" transform="translate(51,15)"/>
<path d="M0 0 C2.43119623 1.87015094 3.64069173 3.28138345 5 6 C5.39447548 10.18144011 5.45035186 12.30946048 3.125 15.875 C0.56899401 18.43100599 -0.21117949 18.97268627 -3.8203125 19.09765625 C-4.91085938 19.08605469 -6.00140625 19.07445313 -7.125 19.0625 C-8.22070312 19.05347656 -9.31640625 19.04445313 -10.4453125 19.03515625 C-11.70988281 19.01775391 -11.70988281 19.01775391 -13 19 C-13.77306542 6.30454789 -13.77306542 6.30454789 -11 1.625 C-6.82489806 -0.63651355 -4.71962885 -0.67423269 0 0 Z " fill="#F3FAFC" transform="translate(59,24)"/>
<path d="M0 0 C2.97 0 5.94 0 9 0 C9 1.65 9 3.3 9 5 C14.94 5 20.88 5 27 5 C27 7.31 27 9.62 27 12 C23.1149148 13.9425426 18.33604463 13.27195404 14.0625 13.3125 C13.04736328 13.34150391 12.03222656 13.37050781 10.98632812 13.40039062 C9.52549805 13.41295898 9.52549805 13.41295898 8.03515625 13.42578125 C7.1419165 13.44036377 6.24867676 13.45494629 5.32836914 13.4699707 C3 13 3 13 1.20361328 11.12084961 C-0.86549567 7.47493693 -0.18167738 4.11802066 0 0 Z " fill="#59AC5B" transform="translate(37,52)"/>
<path d="M0 0 C1.98 0 3.96 0 6 0 C6 6.27 6 12.54 6 19 C7.65 19 9.3 19 11 19 C11 21.64 11 24.28 11 27 C9.39667209 27.08121924 7.79215974 27.13929134 6.1875 27.1875 C4.84751953 27.23970703 4.84751953 27.23970703 3.48046875 27.29296875 C1 27 1 27 -0.63232422 25.79638672 C-2.44618498 23.41395411 -2.37320762 21.93926804 -2.36328125 18.96484375 C-2.36263672 17.99095703 -2.36199219 17.01707031 -2.36132812 16.01367188 C-2.34521484 14.99853516 -2.32910156 13.98339844 -2.3125 12.9375 C-2.31572266 11.91849609 -2.31894531 10.89949219 -2.32226562 9.84960938 C-2.26699141 2.26699141 -2.26699141 2.26699141 0 0 Z " fill="#EC463B" transform="translate(26,24)"/>
<path d="M0 0 C0.33 0 0.66 0 1 0 C1.99 5.28 2.98 10.56 4 16 C10.27 16 16.54 16 23 16 C23.33 17.98 23.66 19.96 24 22 C18.00325593 23.74675802 12.72635779 24.25682842 6.5 24.125 C5.26636719 24.11146484 5.26636719 24.11146484 4.0078125 24.09765625 C2.00507917 24.07436865 0.00249846 24.03850959 -2 24 C-2.05787784 20.37506666 -2.0935542 16.75025143 -2.125 13.125 C-2.14175781 12.09246094 -2.15851562 11.05992188 -2.17578125 9.99609375 C-2.18222656 9.00996094 -2.18867187 8.02382813 -2.1953125 7.0078125 C-2.20578613 6.09660645 -2.21625977 5.18540039 -2.22705078 4.24658203 C-2 2 -2 2 0 0 Z " fill="#179ED1" transform="translate(41,26)"/>
<path d="M0 0 C7.09656918 -0.42579415 11.55806977 0.3022709 17.3125 4.8125 C21.04167832 9.64662005 20.11675651 16.16217455 20 22 C18.62420173 19.33788628 17.62936439 16.93703384 17 14 C16.34 14 15.68 14 15 14 C14.67 12.68 14.34 11.36 14 10 C13.34 10 12.68 10 12 10 C12 9.34 12 8.68 12 8 C8.04 7.67 4.08 7.34 0 7 C-0.33 6.01 -0.66 5.02 -1 4 C-1.66 3.34 -2.32 2.68 -3 2 C-2.01 2 -1.02 2 0 2 C0 1.34 0 0.68 0 0 Z " fill="#4665CD" transform="translate(51,15)"/>
<path d="M0 0 C0.33 1.98 0.66 3.96 1 6 C-6.60298267 8.48260659 -14.10311193 8.18508331 -22 8 C-22 7.67 -22 7.34 -22 7 C-20.02 7 -18.04 7 -16 7 C-15.67 6.01 -15.34 5.02 -15 4 C-15.99 3.67 -16.98 3.34 -18 3 C-18 2.34 -18 1.68 -18 1 C-15.56257869 0.83210874 -13.12507454 0.66563867 -10.6875 0.5 C-9.99720703 0.45230469 -9.30691406 0.40460937 -8.59570312 0.35546875 C-5.72337641 0.16120511 -2.87986212 0 0 0 Z " fill="#1A9FCE" transform="translate(64,42)"/>
<path d="M0 0 C1.125 3.75 1.125 3.75 0 6 C-0.15222973 7.66565749 -0.24917215 9.33656496 -0.31640625 11.0078125 C-0.35830078 11.99394531 -0.40019531 12.98007812 -0.44335938 13.99609375 C-0.48267578 15.02863281 -0.52199219 16.06117187 -0.5625 17.125 C-0.60568359 18.16527344 -0.64886719 19.20554687 -0.69335938 20.27734375 C-0.7996288 22.85142528 -0.90166583 25.42560508 -1 28 C1.83355099 27.85771699 4.66678787 27.71126584 7.5 27.5625 C8.29148437 27.52318359 9.08296875 27.48386719 9.8984375 27.44335938 C14.97385441 27.17294782 19.96375445 26.6872858 25 26 C21.04048505 29.03562813 19.00715825 30.12647792 13.9921875 30.09765625 C13.00605469 30.09443359 12.01992188 30.09121094 11.00390625 30.08789062 C9.97136719 30.07951172 8.93882813 30.07113281 7.875 30.0625 C6.31458984 30.05573242 6.31458984 30.05573242 4.72265625 30.04882812 C2.14838038 30.03701952 -0.42578146 30.02055075 -3 30 C-3.08751413 26.12514365 -3.14056435 22.25054357 -3.1875 18.375 C-3.21263672 17.28058594 -3.23777344 16.18617187 -3.26367188 15.05859375 C-3.31690288 9.20318317 -3.29983099 4.93675502 0 0 Z " fill="#3F92A7" transform="translate(40,22)"/>
<path d="M0 0 C6.875 0.875 6.875 0.875 8 2 C8.1875 4.9375 8.1875 4.9375 8 8 C6 10 6 10 2.875 10.125 C1.451875 10.063125 1.451875 10.063125 0 10 C0 6.7 0 3.4 0 0 Z " fill="#9DA0A3" transform="translate(25,71)"/>
<path d="M0 0 C1.98 0 3.96 0 6 0 C6.33 1.32 6.66 2.64 7 4 C9.97 4.495 9.97 4.495 13 5 C11.02 5.99 11.02 5.99 9 7 C9 7.99 9 8.98 9 10 C6.36 10 3.72 10 1 10 C0.67 6.7 0.34 3.4 0 0 Z " fill="#4EAE51" transform="translate(39,53)"/>
<path d="M0 0 C0.495 0.165 0.99 0.33 1.5 0.5 C1.5 1.16 1.5 1.82 1.5 2.5 C2.49 2.17 3.48 1.84 4.5 1.5 C4.17 6.45 3.84 11.4 3.5 16.5 C2.84 16.5 2.18 16.5 1.5 16.5 C1.51160156 15.89671875 1.52320313 15.2934375 1.53515625 14.671875 C1.54417969 13.87265625 1.55320312 13.0734375 1.5625 12.25 C1.57410156 11.46109375 1.58570313 10.6721875 1.59765625 9.859375 C1.50153761 7.53714857 1.34012695 5.6699279 0.5 3.5 C-2.17643957 2.60785348 -3.75384378 2.36459789 -6.5 2.375 C-7.180625 2.37242188 -7.86125 2.36984375 -8.5625 2.3671875 C-10.71874781 2.43368874 -10.71874781 2.43368874 -13.5 3.5 C-13.17 2.51 -12.84 1.52 -12.5 0.5 C-8.76025568 -1.36987216 -4.03209172 -0.80641834 0 0 Z " fill="#5879C1" transform="translate(61.5,22.5)"/>
<path d="M0 0 C0.515625 0.61875 1.03125 1.2375 1.5625 1.875 C4.54458615 4.47476742 7.18446201 5.11949123 11 6 C10.2890625 7.953125 10.2890625 7.953125 9 10 C5.9929509 10.84675029 3.14212268 10.82045013 0 11 C0 7.37 0 3.74 0 0 Z " fill="#0CACD3" transform="translate(39,39)"/>
<path d="M0 0 C2.33294775 -0.04241723 4.66702567 -0.04092937 7 0 C8 1 8 1 8.1875 3.4375 C8 6 8 6 6 8 C3.375 7.625 3.375 7.625 1 7 C0.67 4.69 0.34 2.38 0 0 Z " fill="#25B8CC" transform="translate(66,57)"/>
<path d="M0 0 C0.33 1.98 0.66 3.96 1 6 C-1.64 6.33 -4.28 6.66 -7 7 C-7 5.35 -7 3.7 -7 2 C-10.63 2 -14.26 2 -18 2 C-18 1.67 -18 1.34 -18 1 C-15.56257869 0.83210874 -13.12507454 0.66563867 -10.6875 0.5 C-9.99720703 0.45230469 -9.30691406 0.40460937 -8.59570312 0.35546875 C-5.72337641 0.16120511 -2.87986212 0 0 0 Z " fill="#2890CB" transform="translate(64,42)"/>
<path d="M0 0 C4.70588235 0.70588235 4.70588235 0.70588235 6 2 C6.04080783 3.99958364 6.04254356 6.00045254 6 8 C3.125 8.125 3.125 8.125 0 8 C-0.66 7.34 -1.32 6.68 -2 6 C-1.44444444 1.44444444 -1.44444444 1.44444444 0 0 Z " fill="#E97F30" transform="translate(26,14)"/>
<path d="M0 0 C5.76219112 -0.34573147 10.04096075 -0.34446833 15 3 C17.375 5.6875 17.375 5.6875 19 8 C17.68 8 16.36 8 15 8 C15 7.01 15 6.02 15 5 C13.68 5.33 12.36 5.66 11 6 C10.67 4.68 10.34 3.36 10 2 C9.278125 2.185625 8.55625 2.37125 7.8125 2.5625 C4.87173027 3.01995307 2.85896942 2.73516357 0 2 C0 1.34 0 0.68 0 0 Z " fill="#5165BE" transform="translate(51,15)"/>
<path d="M0 0 C0.66 0 1.32 0 2 0 C2 0.99 2 1.98 2 3 C2.99 3 3.98 3 5 3 C5 5.64 5 8.28 5 11 C3.35 11 1.7 11 0 11 C0 7.37 0 3.74 0 0 Z " fill="#97999D" transform="translate(50,70)"/>
<path d="M0 0 C-4.56677867 3.50119698 -6.79970067 4.11961078 -12.625 4.0625 C-13.81351563 4.05347656 -15.00203125 4.04445313 -16.2265625 4.03515625 C-17.14179687 4.02355469 -18.05703125 4.01195312 -19 4 C-19 3.34 -19 2.68 -19 2 C-18.24074219 1.93941406 -17.48148438 1.87882812 -16.69921875 1.81640625 C-15.70535156 1.73261719 -14.71148437 1.64882813 -13.6875 1.5625 C-12.70136719 1.48128906 -11.71523438 1.40007813 -10.69921875 1.31640625 C-6.93675249 0.87536462 -3.85159286 -0.1040971 0 0 Z " fill="#4F98BF" transform="translate(65,48)"/>
<path d="M0 0 C2 2 2 2 2.1953125 5.0390625 C2.17210937 6.22242188 2.14890625 7.40578125 2.125 8.625 C2.10695313 9.81351563 2.08890625 11.00203125 2.0703125 12.2265625 C2.04710937 13.14179687 2.02390625 14.05703125 2 15 C1.34 14.67 0.68 14.34 0 14 C-0.703125 11.34765625 -0.703125 11.34765625 -1.25 8.0625 C-1.44078125 6.98097656 -1.6315625 5.89945313 -1.828125 4.78515625 C-1.88484375 3.86605469 -1.9415625 2.94695313 -2 2 C-1.34 1.34 -0.68 0.68 0 0 Z " fill="#3C9FCF" transform="translate(44,28)"/>
<path d="M0 0 C2.97 0 5.94 0 9 0 C9 1.65 9 3.3 9 5 C8.67 3.68 8.34 2.36 8 1 C6.02 1 4.04 1 2 1 C2.33 4.63 2.66 8.26 3 12 C0 9 0 9 -0.29296875 6.73828125 C-0.1953125 4.4921875 -0.09765625 2.24609375 0 0 Z " fill="#6FB877" transform="translate(37,52)"/>
<path d="M0 0 C-3.04662146 3.04662146 -10.88658383 2.68426752 -15 3 C-17.95009766 2.65518339 -20.19075428 2.01132846 -23 1 C-23 0.67 -23 0.34 -23 0 C-19.54210946 -0.19635974 -16.08367803 -0.38058252 -12.625 -0.5625 C-11.64015625 -0.61857422 -10.6553125 -0.67464844 -9.640625 -0.73242188 C-8.69960938 -0.78076172 -7.75859375 -0.82910156 -6.7890625 -0.87890625 C-5.48509521 -0.94960327 -5.48509521 -0.94960327 -4.15478516 -1.02172852 C-2 -1 -2 -1 0 0 Z " fill="#EDFEEE" transform="translate(64,65)"/>
<path d="M0 0 C1.65 0 3.3 0 5 0 C5 2.64 5 5.28 5 8 C1.7 8 -1.6 8 -5 8 C-5 7.67 -5 7.34 -5 7 C-2.36 6.67 0.28 6.34 3 6 C3 4.35 3 2.7 3 1 C2.01 0.67 1.02 0.34 0 0 Z " fill="#C95E59" transform="translate(32,43)"/>
<path d="M0 0 C-0.625 2.375 -0.625 2.375 -2 5 C-5 6.375 -5 6.375 -8 7 C-8.66 6.67 -9.32 6.34 -10 6 C-2.92307692 0 -2.92307692 0 0 0 Z " fill="#4C80C2" transform="translate(51,15)"/>
<path d="M0 0 C0.33 0.66 0.66 1.32 1 2 C2.97888961 2.72693904 4.97954558 3.39816251 7 4 C5.25 7.875 5.25 7.875 3 9 C2.67 7.02 2.34 5.04 2 3 C0.02 3.33 -1.96 3.66 -4 4 C-2.68 2.68 -1.36 1.36 0 0 Z " fill="#3E86C2" transform="translate(62,39)"/>
<path d="M0 0 C-0.33 1.65 -0.66 3.3 -1 5 C-2.98 5 -4.96 5 -7 5 C-7 3.68 -7 2.36 -7 1 C-4.53721199 -0.231394 -2.7204945 -0.07159196 0 0 Z " fill="#2C84D2" transform="translate(48,21)"/>
<path d="M0 0 C0 0.66 0 1.32 0 2 C-0.99 2.495 -0.99 2.495 -2 3 C-2 3.99 -2 4.98 -2 6 C-3.32 5.34 -4.64 4.68 -6 4 C-6 2.68 -6 1.36 -6 0 C-3.50907189 -1.24546405 -2.58919267 -0.7767578 0 0 Z " fill="#75787C" transform="translate(41,76)"/>
<path d="M0 0 C3.3 0 6.6 0 10 0 C10 3.3 10 6.6 10 10 C9.34 9.67 8.68 9.34 8 9 C8 7.02 8 5.04 8 3 C5.36 2.34 2.72 1.68 0 1 C0 0.67 0 0.34 0 0 Z " fill="#FCF7EE" transform="translate(27,51)"/>
<path d="M0 0 C2 0.3125 2 0.3125 4 1 C4.33 1.66 4.66 2.32 5 3 C4.01 3.495 4.01 3.495 3 4 C3.33 4.66 3.66 5.32 4 6 C2.35 6 0.7 6 -1 6 C-1.042721 4.33388095 -1.04063832 2.66617115 -1 1 C-0.67 0.67 -0.34 0.34 0 0 Z " fill="#797B81" transform="translate(65,75)"/>
<path d="M0 0 C0.33 0.66 0.66 1.32 1 2 C1.99 2 2.98 2 4 2 C4 3.65 4 5.3 4 7 C1.83125748 6.49396008 0.00032373 6.00016187 -2 5 C-2 4.34 -2 3.68 -2 3 C-1.34 3 -0.68 3 0 3 C0 2.01 0 1.02 0 0 Z " fill="#307DD0" transform="translate(65,36)"/>
<path d="M0 0 C0 1.32 0 2.64 0 4 C-1.65 4 -3.3 4 -5 4 C-5.33 2.68 -5.66 1.36 -6 0 C-3.50907189 -1.24546405 -2.58919267 -0.7767578 0 0 Z " fill="#FA7003" transform="translate(31,17)"/>
<path d="M0 0 C0.6875 1.75 0.6875 1.75 1 4 C-0.1875 6.25 -0.1875 6.25 -2 8 C-3.32 8 -4.64 8 -6 8 C-6 7.01 -6 6.02 -6 5 C-5.195625 4.731875 -4.39125 4.46375 -3.5625 4.1875 C-2.716875 3.795625 -1.87125 3.40375 -1 3 C-0.67 2.01 -0.34 1.02 0 0 Z " fill="#E1FDFF" transform="translate(74,60)"/>
<path d="M0 0 C2.3125 -0.25 2.3125 -0.25 5 0 C6.8125 2 6.8125 2 8 4 C6.35 4.33 4.7 4.66 3 5 C2.67 4.01 2.34 3.02 2 2 C1.34 1.34 0.68 0.68 0 0 Z " fill="#3E6FD4" transform="translate(48,17)"/>
<path d="M0 0 C3.36720387 1.39332574 4.9859524 2.9789286 7 6 C5.68 6 4.36 6 3 6 C3 5.01 3 4.02 3 3 C2.01 2.67 1.02 2.34 0 2 C0 1.34 0 0.68 0 0 Z " fill="#5C65B8" transform="translate(63,17)"/>
</svg>
