<?xml version="1.0" encoding="UTF-8"?>
<svg version="1.1" xmlns="http://www.w3.org/2000/svg" width="100" height="100">
<path d="M0 0 C33 0 66 0 100 0 C100 33 100 66 100 100 C67 100 34 100 0 100 C0 67 0 34 0 0 Z " fill="#002657" transform="translate(0,0)"/>
<path d="M0 0 C1.134375 0.020625 2.26875 0.04125 3.4375 0.0625 C3.7675 1.3825 4.0975 2.7025 4.4375 4.0625 C5.0975 2.7425 5.7575 1.4225 6.4375 0.0625 C9.4375 1.0625 9.4375 1.0625 11.4375 4.0625 C12.0975 4.0625 12.7575 4.0625 13.4375 4.0625 C13.4375 2.7425 13.4375 1.4225 13.4375 0.0625 C15.4175 0.0625 17.3975 0.0625 19.4375 0.0625 C19.4375 1.3825 19.4375 2.7025 19.4375 4.0625 C19.7675 2.7425 20.0975 1.4225 20.4375 0.0625 C21.076875 0.248125 21.71625 0.43375 22.375 0.625 C23.3959375 0.8415625 23.3959375 0.8415625 24.4375 1.0625 C24.7675 0.7325 25.0975 0.4025 25.4375 0.0625 C27.10367115 0.02186168 28.77138095 0.019779 30.4375 0.0625 C30.5625 6.6875 30.5625 6.6875 29.4375 10.0625 C29.788125 10.701875 30.13875 11.34125 30.5 12 C30.809375 12.680625 31.11875 13.36125 31.4375 14.0625 C30.5625 16.3125 30.5625 16.3125 29.4375 18.0625 C30.0975 18.3925 30.7575 18.7225 31.4375 19.0625 C30.1175 19.0625 28.7975 19.0625 27.4375 19.0625 C27.4375 17.4125 27.4375 15.7625 27.4375 14.0625 C26.7775 14.0625 26.1175 14.0625 25.4375 14.0625 C25.4375 15.7125 25.4375 17.3625 25.4375 19.0625 C25.1075 19.0625 24.7775 19.0625 24.4375 19.0625 C24.4375 17.4125 24.4375 15.7625 24.4375 14.0625 C21.92666886 15.31791557 21.56624554 16.56313488 20.4375 19.0625 C19.7775 17.7425 19.1175 16.4225 18.4375 15.0625 C18.1075 16.3825 17.7775 17.7025 17.4375 19.0625 C14.7975 19.7225 12.1575 20.3825 9.4375 21.0625 C8.98375 20.4025 8.53 19.7425 8.0625 19.0625 C7.52625 18.4025 6.99 17.7425 6.4375 17.0625 C5.7775 17.0625 5.1175 17.0625 4.4375 17.0625 C4.4375 17.7225 4.4375 18.3825 4.4375 19.0625 C3.65375 18.876875 2.87 18.69125 2.0625 18.5 C-0.53339775 17.80287734 -0.53339775 17.80287734 -2.5625 19.0625 C-2.7578125 13.0078125 -2.7578125 13.0078125 -2.5625 11.0625 C-1.9025 10.4025 -1.2425 9.7425 -0.5625 9.0625 C-1.8825 8.4025 -3.2025 7.7425 -4.5625 7.0625 C-4.60504356 5.06295254 -4.60330783 3.06208364 -4.5625 1.0625 C-3.5625 0.0625 -3.5625 0.0625 0 0 Z " fill="#173760" transform="translate(36.5625,55.9375)"/>
<path d="M0 0 C3.13687659 1.6890874 5.6935661 3.26875533 8.25 5.75 C8.745 7.73 8.745 7.73 9.25 9.75 C4.795 10.245 4.795 10.245 0.25 10.75 C-0.08 12.07 -0.41 13.39 -0.75 14.75 C-3.16957155 17.31041229 -5.67087473 19.69109581 -8.26953125 22.06445312 C-12.07224203 25.67656349 -13.97485715 28.80318585 -15.75 33.75 C-16.41 33.75 -17.07 33.75 -17.75 33.75 C-18.625 31.75 -18.625 31.75 -18.75 28.75 C-15.47589277 22.68060755 -9.97793539 17.1772606 -4.75 12.75 C-4.09 12.75 -3.43 12.75 -2.75 12.75 C-1.76 10.44 -0.77 8.13 0.25 5.75 C-5.46687205 7.76771955 -8.00151153 9.81777832 -11.75 14.75 C-12.595625 15.554375 -13.44125 16.35875 -14.3125 17.1875 C-17.16577944 20.18710147 -18.76674706 23.12543429 -20.75 26.75 C-21.41 27.41 -22.07 28.07 -22.75 28.75 C-23.625 26.3125 -23.625 26.3125 -23.75 22.75 C-20.94011185 16.83990315 -16.90494177 12.6448449 -11.75 8.75 C-9.91889037 7.04517379 -8.86601088 5.98202177 -7.75 3.75 C-14.1975972 4.46639969 -18.22974942 11.37729257 -22.19921875 15.98046875 C-23.33693322 17.27866688 -24.5294033 18.5294033 -25.75 19.75 C-25.23118887 15.5775894 -24.03848726 13.49583179 -21.1875 10.4375 C-20.54683594 9.74011719 -19.90617187 9.04273438 -19.24609375 8.32421875 C-18.75238281 7.80472656 -18.25867187 7.28523438 -17.75 6.75 C-20.06 8.4 -22.37 10.05 -24.75 11.75 C-23.47418171 6.26398137 -21.27843832 4.01047559 -16.75 0.75 C-11.27520431 -2.43715287 -5.87512364 -1.95837455 0 0 Z " fill="#4485C6" transform="translate(55.75,14.25)"/>
<path d="M0 0 C2.46999683 2.46999683 2.2968552 3.28214816 2.3125 6.6875 C2.17099094 12.82545562 0.61588096 17.03473937 -3.3125 21.8125 C-7.44851918 25.17902724 -10.71179261 26 -16 26 C-15.67 24.02 -15.34 22.04 -15 20 C-14.01 19.67 -13.02 19.34 -12 19 C-12 18.01 -12 17.02 -12 16 C-16.15825278 20.4024476 -16.15825278 20.4024476 -18 26 C-18.99 26 -19.98 26 -21 26 C-21.25551751 23.05643834 -21.29657879 21.46329468 -19.6796875 18.9375 C-9.78541016 8.31507238 -9.78541016 8.31507238 -5.875 7.625 C-2.51312609 6.50437536 -1.54068694 3.02634935 0 0 Z " fill="#3151A4" transform="translate(65,24)"/>
<path d="M0 0 C1.134375 0.020625 2.26875 0.04125 3.4375 0.0625 C3.7675 1.3825 4.0975 2.7025 4.4375 4.0625 C5.0975 2.7425 5.7575 1.4225 6.4375 0.0625 C9.4375 1.0625 9.4375 1.0625 10.67578125 3.2421875 C11.03027344 4.13164063 11.38476562 5.02109375 11.75 5.9375 C12.30107422 7.26394531 12.30107422 7.26394531 12.86328125 8.6171875 C13.05277344 9.42414063 13.24226563 10.23109375 13.4375 11.0625 C12.4475 12.5475 12.4475 12.5475 11.4375 14.0625 C10.4475 14.0625 9.4575 14.0625 8.4375 14.0625 C7.4475 15.5475 7.4475 15.5475 6.4375 17.0625 C5.7775 17.0625 5.1175 17.0625 4.4375 17.0625 C4.4375 17.7225 4.4375 18.3825 4.4375 19.0625 C3.65375 18.876875 2.87 18.69125 2.0625 18.5 C-0.53339775 17.80287734 -0.53339775 17.80287734 -2.5625 19.0625 C-2.7578125 13.0078125 -2.7578125 13.0078125 -2.5625 11.0625 C-1.9025 10.4025 -1.2425 9.7425 -0.5625 9.0625 C-1.8825 8.4025 -3.2025 7.7425 -4.5625 7.0625 C-4.60504356 5.06295254 -4.60330783 3.06208364 -4.5625 1.0625 C-3.5625 0.0625 -3.5625 0.0625 0 0 Z " fill="#173660" transform="translate(36.5625,55.9375)"/>
<path d="M0 0 C1.70884005 1.62339805 3.37446717 3.29319053 5 5 C5 5.66 5 6.32 5 7 C0.545 7.495 0.545 7.495 -4 8 C-4.33 9.32 -4.66 10.64 -5 12 C-7.41957155 14.56041229 -9.92087473 16.94109581 -12.51953125 19.31445312 C-16.32224203 22.92656349 -18.22485715 26.05318585 -20 31 C-20.66 31 -21.32 31 -22 31 C-22.875 29 -22.875 29 -23 26 C-19.72589277 19.93060755 -14.22793539 14.4272606 -9 10 C-8.34 10 -7.68 10 -7 10 C-6.34 7.69 -5.68 5.38 -5 3 C-4.360625 2.87625 -3.72125 2.7525 -3.0625 2.625 C-2.381875 2.41875 -1.70125 2.2125 -1 2 C-0.67 1.34 -0.34 0.68 0 0 Z " fill="#3B6AAE" transform="translate(60,17)"/>
<path d="M0 0 C-2.56638448 5.13276895 -3.5698556 7.02540204 -9 9 C-12.85390304 11.93081249 -16.26503563 15.06087886 -19.25 18.875 C-21.14850796 21.18033109 -22.0782168 21.6869518 -25 22 C-23.65863231 16.12818516 -20.6913079 13.2640998 -16.4375 9.3125 C-15.2443155 8.18822669 -14.05531244 7.05949454 -12.87109375 5.92578125 C-12.08109985 5.18968628 -12.08109985 5.18968628 -11.27514648 4.4387207 C-9.75174243 2.90954543 -9.75174243 2.90954543 -9 0 C-3.375 -1.125 -3.375 -1.125 0 0 Z " fill="#032760" transform="translate(65,25)"/>
<path d="M0 0 C-1.3634603 6.56939961 -1.3634603 6.56939961 -4.125 8.4375 C-5.548125 9.2109375 -5.548125 9.2109375 -7 10 C-11.33044804 13.84834738 -15.3833297 17.7666594 -18 23 C-19.32 22.34 -20.64 21.68 -22 21 C-18.88311622 15.32281882 -15.85364488 10.42177276 -10.75 6.3125 C-9.8425 5.549375 -8.935 4.78625 -8 4 C-8 3.34 -8 2.68 -8 2 C-5.09399739 0.74335022 -3.20395416 0 0 0 Z " fill="#042A63" transform="translate(56,20)"/>
<path d="M0 0 C1.32 0.66 2.64 1.32 4 2 C1.59496947 4.47374569 -0.73635472 6.80226604 -3.5 8.875 C-8.01751662 12.71488913 -11.12059523 17.36178569 -13 23 C-15 21 -15 21 -15.0625 18.4375 C-12.77166462 11.02597378 -7.52753326 5.88543647 -1 2 C-0.67 1.34 -0.34 0.68 0 0 Z " fill="#3561A7" transform="translate(47,20)"/>
<path d="M0 0 C1.5843317 0.08768248 3.16753567 0.19587329 4.75 0.3125 C6.07257812 0.39951172 6.07257812 0.39951172 7.421875 0.48828125 C10.32303774 1.0641181 11.79225607 2.07596148 14 4 C13.67 4.99 13.34 5.98 13 7 C9.37 7.33 5.74 7.66 2 8 C2.33 6.68 2.66 5.36 3 4 C1.68 3.67 0.36 3.34 -1 3 C-0.67 2.01 -0.34 1.02 0 0 Z " fill="#4E9AD8" transform="translate(46,13)"/>
<path d="M0 0 C1.32 0 2.64 0 4 0 C3.02975403 3.49288548 2.32984319 4.78260335 -0.75 6.8125 C-4.36384059 9.24489271 -6.14820689 11.70023592 -8.5078125 15.29296875 C-10.26358219 17.3015325 -11.40151082 17.62639748 -14 18 C-12.5080378 12.69524551 -8.91524022 8.74178021 -5 5 C-4.28585938 4.65324219 -3.57171875 4.30648438 -2.8359375 3.94921875 C-0.64075634 3.08473472 -0.64075634 3.08473472 0 0 Z " fill="#052A64" transform="translate(44,18)"/>
<path d="M0 0 C1.98 0 3.96 0 6 0 C6 1.32 6 2.64 6 4 C6.33 2.68 6.66 1.36 7 0 C7.66 0 8.32 0 9 0 C9 2.64 9 5.28 9 8 C6.03 8 3.06 8 0 8 C0 5.36 0 2.72 0 0 Z " fill="#99B0C7" transform="translate(50,56)"/>
<path d="M0 0 C2.5 0.125 2.5 0.125 3.5 1.125 C3.625 4.125 3.625 4.125 3.5 7.125 C2.5 8.125 2.5 8.125 0 8.25 C-2.5 8.125 -2.5 8.125 -3.5 7.125 C-3.625 4.125 -3.625 4.125 -3.5 1.125 C-2.5 0.125 -2.5 0.125 0 0 Z " fill="#7F95AD" transform="translate(35.5,55.875)"/>
<path d="M0 0 C1.70884005 1.62339805 3.37446717 3.29319053 5 5 C5 5.66 5 6.32 5 7 C1.52674819 8.1577506 -1.36067448 8.06866652 -5 8 C-5 6.02 -5 4.04 -5 2 C-3.68 2 -2.36 2 -1 2 C-0.67 1.34 -0.34 0.68 0 0 Z " fill="#427ABE" transform="translate(60,17)"/>
<path d="M0 0 C0.66 0.66 1.32 1.32 2 2 C1.319375 2.66 0.63875 3.32 -0.0625 4 C-3.0139125 6.94297989 -5.72835661 10.07523395 -8.44921875 13.23046875 C-9.58693322 14.52866688 -10.7794033 15.7794033 -12 17 C-11.51040918 12.29305672 -9.57771053 9.82000927 -6.5625 6.25 C-5.75941406 5.28578125 -4.95632812 4.3215625 -4.12890625 3.328125 C-2 1 -2 1 0 0 Z " fill="#3966A9" transform="translate(42,17)"/>
<path d="M0 0 C0.6171875 1.84375 0.6171875 1.84375 1 4 C-0.28062485 5.7074998 -1.61767557 7.37373596 -3 9 C-3.77833534 11.18214568 -3.77833534 11.18214568 -4 13 C-4.99 13 -5.98 13 -7 13 C-7.3077917 9.86162389 -7.27813784 8.40656372 -5.46875 5.76171875 C-4.8190625 5.07722656 -4.169375 4.39273438 -3.5 3.6875 C-2.8503125 2.99011719 -2.200625 2.29273438 -1.53125 1.57421875 C-1.0259375 1.05472656 -0.520625 0.53523438 0 0 Z " fill="#27438C" transform="translate(51,37)"/>
<path d="M0 0 C4.29 0 8.58 0 13 0 C12.34 1.65 11.68 3.3 11 5 C11.66 5.33 12.32 5.66 13 6 C11.68 6 10.36 6 9 6 C9 4.35 9 2.7 9 1 C8.34 1 7.68 1 7 1 C7 2.65 7 4.3 7 6 C6.67 6 6.34 6 6 6 C6 4.35 6 2.7 6 1 C3.48916886 2.25541557 3.12874554 3.50063488 2 6 C1.34 4.02 0.68 2.04 0 0 Z " fill="#7492B7" transform="translate(55,69)"/>
<path d="M0 0 C1.65 0 3.3 0 5 0 C5.04241723 2.33294775 5.04092937 4.66702567 5 7 C4 8 4 8 1.4375 8.0625 C0.633125 8.041875 -0.17125 8.02125 -1 8 C-1 4.88742431 -0.82638376 2.89234315 0 0 Z " fill="#AAC0DA" transform="translate(62,56)"/>
<path d="M0 0 C0.4125 0.61875 0.825 1.2375 1.25 1.875 C3.05573879 4.06768281 4.4090534 4.92788417 7 6 C5.35 6 3.7 6 2 6 C1.67 7.32 1.34 8.64 1 10 C-0.65 10.33 -2.3 10.66 -4 11 C-4 10.01 -4 9.02 -4 8 C-2.68 8 -1.36 8 0 8 C0 5.36 0 2.72 0 0 Z " fill="#133052" transform="translate(59,56)"/>
<path d="M0 0 C1.32 0 2.64 0 4 0 C2.9802693 3.77300358 2.34127338 4.80206144 -1.125 6.8125 C-2.07375 7.204375 -3.0225 7.59625 -4 8 C-4.33 7.01 -4.66 6.02 -5 5 C-4.360625 4.731875 -3.72125 4.46375 -3.0625 4.1875 C-0.66868314 3.11332248 -0.66868314 3.11332248 0 0 Z " fill="#07336A" transform="translate(44,18)"/>
<path d="M0 0 C1.1875 1.5625 1.1875 1.5625 2 4 C0.625 7.75 0.625 7.75 -1 11 C-1.66 11 -2.32 11 -3 11 C-3.75 8.875 -3.75 8.875 -4 6 C-2.0625 2.6875 -2.0625 2.6875 0 0 Z " fill="#27478E" transform="translate(41,37)"/>
<path d="M0 0 C2.475 0.99 2.475 0.99 5 2 C5 3.32 5 4.64 5 6 C1.37 6.33 -2.26 6.66 -6 7 C-4.68 6.34 -3.36 5.68 -2 5 C-0.501423 2.66267164 -0.501423 2.66267164 0 0 Z " fill="#4689C9" transform="translate(54,14)"/>
<path d="M0 0 C0.66 0.99 1.32 1.98 2 3 C1.67 3.33 1.34 3.66 1 4 C3.64 3.67 6.28 3.34 9 3 C8 5 8 5 5.1875 6.125 C2 7 2 7 -2 7 C-1.125 1.125 -1.125 1.125 0 0 Z " fill="#263F8C" transform="translate(51,43)"/>
<path d="M0 0 C0.66 0.99 1.32 1.98 2 3 C1.15955106 6.43183318 0.51471866 8.48528134 -2 11 C-2.94693195 7.2983569 -3.30443767 5.60887535 -1.5625 2.125 C-1.046875 1.42375 -0.53125 0.7225 0 0 Z " fill="#2B4B91" transform="translate(35,32)"/>
<path d="M0 0 C3 2 3 2 3.6875 4.125 C3.790625 4.74375 3.89375 5.3625 4 6 C3.01 6.33 2.02 6.66 1 7 C0.67 7.66 0.34 8.32 0 9 C0 8.34 0 7.68 0 7 C-1.32 6.34 -2.64 5.68 -4 5 C-2.68 4.34 -1.36 3.68 0 3 C0 2.01 0 1.02 0 0 Z " fill="#0F2F59" transform="translate(54,70)"/>
<path d="M0 0 C0.99 0.33 1.98 0.66 3 1 C4.1875 4.5625 4.1875 4.5625 5 8 C4.34 8 3.68 8 3 8 C2.34 7.01 1.68 6.02 1 5 C-1.16666667 5.83333333 -1.16666667 5.83333333 -2 8 C-1.125 2.25 -1.125 2.25 0 0 Z " fill="#B8D0DF" transform="translate(43,56)"/>
<path d="M0 0 C1.32 0.66 2.64 1.32 4 2 C2.37660195 3.70884005 0.70680947 5.37446717 -1 7 C-1.66 7 -2.32 7 -3 7 C-2.25 2.25 -2.25 2.25 0 0 Z " fill="#3259A4" transform="translate(45,33)"/>
<path d="M0 0 C1.32 0 2.64 0 4 0 C4.33 1.65 4.66 3.3 5 5 C3.35 5.33 1.7 5.66 0 6 C0 4.02 0 2.04 0 0 Z " fill="#6783A4" transform="translate(50,69)"/>
<path d="M0 0 C1.32 0.66 2.64 1.32 4 2 C1.75 4.5625 1.75 4.5625 -1 7 C-3.3125 6.8125 -3.3125 6.8125 -5 6 C-3.35 4.02 -1.7 2.04 0 0 Z " fill="#3C70B4" transform="translate(47,20)"/>
<path d="M0 0 C1.5 1.375 1.5 1.375 3 3 C3 3.66 3 4.32 3 5 C0.36 5.33 -2.28 5.66 -5 6 C-3.625 4 -3.625 4 -2 2 C-1.34 2 -0.68 2 0 2 C0 1.34 0 0.68 0 0 Z " fill="#396DB1" transform="translate(62,19)"/>
<path d="M0 0 C0 3.19633438 -0.33810135 4.34096216 -2 7 C-4.125 8.75 -4.125 8.75 -6 10 C-4.79157144 5.56909529 -3.48331435 3.01887244 0 0 Z " fill="#3562A4" transform="translate(37,16)"/>
<path d="M0 0 C1.98 0.99 1.98 0.99 4 2 C4.33 1.34 4.66 0.68 5 0 C5 1.98 5 3.96 5 6 C3.33333333 6 1.66666667 6 0 6 C0 4.02 0 2.04 0 0 Z " fill="#7693B7" transform="translate(34,69)"/>
<path d="M0 0 C-2.20052594 2.20052594 -3.05141896 2.3929392 -6 3 C-7.11375 3.2784375 -7.11375 3.2784375 -8.25 3.5625 C-8.8275 3.706875 -9.405 3.85125 -10 4 C-9.67 2.68 -9.34 1.36 -9 0 C-3.375 -1.125 -3.375 -1.125 0 0 Z " fill="#07326D" transform="translate(65,25)"/>
<path d="M0 0 C1.0625 1.8125 1.0625 1.8125 2 4 C1.67 4.99 1.34 5.98 1 7 C0.01 7.33 -0.98 7.66 -2 8 C-2 4.79604584 -1.25664978 2.90600261 0 0 Z " fill="#314999" transform="translate(54,40)"/>
<path d="M0 0 C0.33 0 0.66 0 1 0 C1 2.64 1 5.28 1 8 C0.01 8 -0.98 8 -2 8 C-1.125 1.125 -1.125 1.125 0 0 Z " fill="#385FAA" transform="translate(65,24)"/>
<path d="M0 0 C0 3 0 3 -2.5 5.6875 C-3.325 6.450625 -4.15 7.21375 -5 8 C-4.64950425 4.75791433 -4.43778819 3.38472296 -1.9375 1.1875 C-1.298125 0.795625 -0.65875 0.40375 0 0 Z " fill="#284590" transform="translate(65,38)"/>
</svg>
