<?xml version="1.0" encoding="UTF-8"?>
<svg version="1.1" xmlns="http://www.w3.org/2000/svg" width="200" height="200">
<path d="M0 0 C66 0 132 0 200 0 C200 66 200 132 200 200 C134 200 68 200 0 200 C0 134 0 68 0 0 Z " fill="#FCFEFE" transform="translate(0,0)"/>
<path d="M0 0 C7.65982083 4.08438951 12.91840445 9.17448305 16.375 17.1875 C18.37735307 29.4018537 16.81589102 38.54280732 9.875 48.75 C9.37742188 49.42546875 8.87984375 50.1009375 8.3671875 50.796875 C4.7807395 56.57617977 4.6490282 62.45731371 4.34375 69.07421875 C4 72 4 72 2 75 C-0.94921875 75.38818359 -0.94921875 75.38818359 -4.6875 75.3984375 C-5.34580811 75.40130768 -6.00411621 75.40417786 -6.68237305 75.40713501 C-8.07439026 75.40917676 -9.46643609 75.40363902 -10.85839844 75.39111328 C-12.99218747 75.37505878 -15.12408255 75.39095563 -17.2578125 75.41015625 C-18.60937919 75.40817383 -19.9609447 75.40433019 -21.3125 75.3984375 C-22.54613281 75.39505371 -23.77976562 75.39166992 -25.05078125 75.38818359 C-26.02402344 75.26008301 -26.99726562 75.13198242 -28 75 C-30.31301995 71.53047008 -30.24906428 69.97275444 -30.375 65.875 C-31.03584065 55.9073202 -35.37614923 49.11187545 -40.51171875 40.69921875 C-44.03556699 34.30819741 -43.77200165 27.12616906 -43 20 C-39.85816428 10.30519265 -34.65348606 4.30231054 -25.75 -0.3125 C-17.15721272 -4.38548117 -8.58610539 -3.99178584 0 0 Z M-34.26953125 10.7265625 C-38.23639782 15.93811181 -40.79281032 22.23364389 -40.37890625 28.8828125 C-38.90612229 37.11218267 -35.09353307 43.63153857 -30.546875 50.51953125 C-26.46022545 57.07261828 -26.46868013 64.48878421 -26 72 C-22.37 72 -18.74 72 -15 72 C-15 67.71 -15 63.42 -15 59 C-18.3 59 -21.6 59 -25 59 C-25 58.01 -25 57.02 -25 56 C-22.03 56 -19.06 56 -16 56 C-16 50.72 -16 45.44 -16 40 C-6.375 40.75 -6.375 40.75 -3 43 C-2.8125 46.125 -2.8125 46.125 -3 49 C-7.455 49.495 -7.455 49.495 -12 50 C-12 51.98 -12 53.96 -12 56 C-8.37 56 -4.74 56 -1 56 C-1 57.32 -1 58.64 -1 60 C-4.63 60 -8.26 60 -12 60 C-12 63.96 -12 67.92 -12 72 C-8.04 72 -4.08 72 0 72 C0.08636719 70.96101563 0.17273438 69.92203125 0.26171875 68.8515625 C1.08310733 60.26000309 2.37652202 53.45033272 7 46 C7.53625 45.10152344 8.0725 44.20304687 8.625 43.27734375 C9.65743948 41.55247491 10.70290434 39.83528504 11.765625 38.12890625 C14.58485985 33.2666183 14.55619098 28.4665628 14 23 C11.98691504 15.62677317 7.36306715 8.82172193 0.91015625 4.6484375 C-11.90209096 -1.98434597 -24.41757971 0.14702173 -34.26953125 10.7265625 Z " fill="#5293EC" transform="translate(113,54)"/>
<path d="M0 0 C1.5675 -0.061875 3.135 -0.12375 4.75 -0.1875 C6.07257813 -0.23970703 6.07257813 -0.23970703 7.421875 -0.29296875 C10.44671583 0.05076316 11.75583602 1.00227459 14 3 C13.625 5.9375 13.625 5.9375 13 9 C10.04335481 10.4783226 7.25770263 10.06032783 4 10 C4 11.98 4 13.96 4 16 C7.63 16 11.26 16 15 16 C15 17.32 15 18.64 15 20 C11.37 20 7.74 20 4 20 C4 23.96 4 27.92 4 32 C3.01 32 2.02 32 1 32 C1 27.71 1 23.42 1 19 C-2.3 19 -5.6 19 -9 19 C-9 18.01 -9 17.02 -9 16 C-6.03 16 -3.06 16 0 16 C0 10.72 0 5.44 0 0 Z " fill="#5C9AED" transform="translate(97,94)"/>
<path d="M0 0 C1.09731445 0.07831055 1.09731445 0.07831055 2.21679688 0.15820312 C3.99918622 0.28634876 5.7809257 0.4234816 7.5625 0.5625 C7.5625 2.2125 7.5625 3.8625 7.5625 5.5625 C8.2225 5.5625 8.8825 5.5625 9.5625 5.5625 C9.5625 4.2425 9.5625 2.9225 9.5625 1.5625 C10.2225 1.5625 10.8825 1.5625 11.5625 1.5625 C11.5625 4.8625 11.5625 8.1625 11.5625 11.5625 C10.9025 11.5625 10.2425 11.5625 9.5625 11.5625 C9.5625 10.2425 9.5625 8.9225 9.5625 7.5625 C8.9025 7.5625 8.2425 7.5625 7.5625 7.5625 C7.5625 9.2125 7.5625 10.8625 7.5625 12.5625 C1.89583333 12.5625 -3.77083333 12.5625 -9.4375 12.5625 C-9.4375 9.5925 -9.4375 6.6225 -9.4375 3.5625 C-10.0975 3.5625 -10.7575 3.5625 -11.4375 3.5625 C-11.4375 6.2025 -11.4375 8.8425 -11.4375 11.5625 C-12.0975 11.5625 -12.7575 11.5625 -13.4375 11.5625 C-13.4375 8.5925 -13.4375 5.6225 -13.4375 2.5625 C-14.0975 2.5625 -14.7575 2.5625 -15.4375 2.5625 C-15.4375 1.9025 -15.4375 1.2425 -15.4375 0.5625 C-10.14096121 -0.37709624 -5.35081483 -0.42591115 0 0 Z " fill="#C8E6FD" transform="translate(142.4375,165.4375)"/>
<path d="M0 0 C1.98 0 3.96 0 6 0 C6.33 0.66 6.66 1.32 7 2 C7.33 1.34 7.66 0.68 8 0 C12.95 0 17.9 0 23 0 C24.62651522 3.25303044 24.11453156 6.39225602 24 10 C23 11 23 11 20.5 11.125 C18 11 18 11 17 10 C16.85884839 7.32941149 16.95752893 4.67567762 17 2 C16.01 2 15.02 2 14 2 C14 2.99 14 3.98 14 5 C14.66 5 15.32 5 16 5 C16 5.66 16 6.32 16 7 C15.34 7 14.68 7 14 7 C14 8.65 14 10.3 14 12 C12.02 12 10.04 12 8 12 C7.67 11.34 7.34 10.68 7 10 C6.67 10.66 6.34 11.32 6 12 C4.02 12 2.04 12 0 12 C0 8.04 0 4.08 0 0 Z " fill="#7BAEF0" transform="translate(102,166)"/>
<path d="M0 0 C4.58984375 0.09765625 4.58984375 0.09765625 9.1796875 0.1953125 C8.8496875 4.1553125 8.5196875 8.1153125 8.1796875 12.1953125 C6.8596875 12.1953125 5.5396875 12.1953125 4.1796875 12.1953125 C3.8496875 11.2053125 3.5196875 10.2153125 3.1796875 9.1953125 C2.8496875 10.1853125 2.5196875 11.1753125 2.1796875 12.1953125 C-0.1953125 12.3203125 -0.1953125 12.3203125 -2.8203125 12.1953125 C-4.8203125 10.1953125 -4.8203125 10.1953125 -5.0859375 8.3203125 C-5.08078125 7.6190625 -5.075625 6.9178125 -5.0703125 6.1953125 C-5.07546875 5.4940625 -5.080625 4.7928125 -5.0859375 4.0703125 C-4.60918397 0.70499345 -3.21465692 0.22262167 0 0 Z " fill="#C7E5FB" transform="translate(87.8203125,165.8046875)"/>
<path d="M0 0 C7.26 0 14.52 0 22 0 C21.67 1.65 21.34 3.3 21 5 C14.4 5 7.8 5 1 5 C0.67 3.35 0.34 1.7 0 0 Z " fill="#5E93DF" transform="translate(89,146)"/>
<path d="M0 0 C3.3 0 6.6 0 10 0 C10 3.3 10 6.6 10 10 C6.7 10 3.4 10 0 10 C0 6.7 0 3.4 0 0 Z " fill="#FBFEFC" transform="translate(102,115)"/>
<path d="M0 0 C9.9 0 19.8 0 30 0 C30 0.99 30 1.98 30 3 C20.1 3 10.2 3 0 3 C0 2.01 0 1.02 0 0 Z " fill="#4D8DE6" transform="translate(85,141)"/>
<path d="M0 0 C9.9 0 19.8 0 30 0 C30 0.99 30 1.98 30 3 C20.1 3 10.2 3 0 3 C0 2.01 0 1.02 0 0 Z " fill="#498EE7" transform="translate(85,136)"/>
<path d="M0 0 C9.9 0 19.8 0 30 0 C30 0.99 30 1.98 30 3 C20.1 3 10.2 3 0 3 C0 2.01 0 1.02 0 0 Z " fill="#4B8DE9" transform="translate(85,131)"/>
<path d="M0 0 C2.31 0 4.62 0 7 0 C6.67 0.66 6.34 1.32 6 2 C5.01 2 4.02 2 3 2 C3 3.32 3 4.64 3 6 C5.31 6 7.62 6 10 6 C10 4.68 10 3.36 10 2 C10.99 2 11.98 2 13 2 C12.625 4.9375 12.625 4.9375 12 8 C9.04335481 9.4783226 6.25770263 9.06032783 3 9 C3 10.98 3 12.96 3 15 C2.01 15 1.02 15 0 15 C0 10.05 0 5.1 0 0 Z " fill="#4E90E9" transform="translate(98,95)"/>
<path d="M0 0 C-0.5805321 3.30118794 -1.54868099 4.91134076 -3.94140625 7.234375 C-4.52470703 7.80800781 -5.10800781 8.38164063 -5.70898438 8.97265625 C-6.32064453 9.55917969 -6.93230469 10.14570312 -7.5625 10.75 C-8.17802734 11.35199219 -8.79355469 11.95398438 -9.42773438 12.57421875 C-10.94514813 14.05634381 -12.47170596 15.5290967 -14 17 C-14.99 16.67 -15.98 16.34 -17 16 C-16.68169381 13.02914221 -16.15463763 12.12812832 -13.8125 10.1875 C-12.884375 9.465625 -11.95625 8.74375 -11 8 C-9.38651576 6.20460332 -7.85300413 4.36240878 -6.33203125 2.48828125 C-4.2244387 0.13346377 -3.19966327 0 0 0 Z " fill="#5B99EA" transform="translate(146,39)"/>
<path d="M0 0 C0.99 0.33 1.98 0.66 3 1 C3 7.93 3 14.86 3 22 C1.68 22 0.36 22 -1 22 C-1.02887814 18.52085059 -1.04675687 15.04173169 -1.0625 11.5625 C-1.07087891 10.56927734 -1.07925781 9.57605469 -1.08789062 8.55273438 C-1.09111328 7.60849609 -1.09433594 6.66425781 -1.09765625 5.69140625 C-1.10289307 4.81685791 -1.10812988 3.94230957 -1.11352539 3.04125977 C-1 1 -1 1 0 0 Z " fill="#5193EB" transform="translate(99,20)"/>
<path d="M0 0 C3.96 0 7.92 0 12 0 C12 0.66 12 1.32 12 2 C11.01 2 10.02 2 9 2 C9 2.99 9 3.98 9 5 C9.66 5 10.32 5 11 5 C11 5.66 11 6.32 11 7 C10.34 7 9.68 7 9 7 C9 7.99 9 8.98 9 10 C9.99 10 10.98 10 12 10 C12 10.66 12 11.32 12 12 C10.02 12 8.04 12 6 12 C6 9.03 6 6.06 6 3 C5.34 3 4.68 3 4 3 C4 5.64 4 8.28 4 11 C3.34 11 2.68 11 2 11 C2 8.03 2 5.06 2 2 C1.34 2 0.68 2 0 2 C0 1.34 0 0.68 0 0 Z " fill="#88B3EA" transform="translate(127,166)"/>
<path d="M0 0 C5.22943706 0.88516084 8.2473579 4.50001103 12 8 C12.80630859 8.70962891 12.80630859 8.70962891 13.62890625 9.43359375 C15 10.6875 15 10.6875 17 13 C17 14.32 17 15.64 17 17 C13.63949277 16.75107354 12.88490695 15.86673436 10.625 13.25 C10.20863281 12.70988281 9.79226562 12.16976562 9.36328125 11.61328125 C7.96794847 9.96207082 6.52480828 8.74985306 4.8125 7.4375 C1.98922485 4.99066154 1.009495 3.5332325 0 0 Z " fill="#5493E9" transform="translate(54,39)"/>
<path d="M0 0 C-1.00842132 6.52507916 -7.14625454 11.31103191 -11.8125 15.5625 C-14 17 -14 17 -17 17 C-15.5205497 12.04705768 -12.65899953 9.20702332 -9.0625 5.6875 C-8.52431641 5.13771484 -7.98613281 4.58792969 -7.43164062 4.02148438 C-3.38018245 0 -3.38018245 0 0 0 Z " fill="#5291EA" transform="translate(71,113)"/>
<path d="M0 0 C1.98 0 3.96 0 6 0 C7.12256131 2.24512262 7.13413762 3.51456649 7.125 6 C7.12757812 6.70125 7.13015625 7.4025 7.1328125 8.125 C7 10 7 10 6 12 C4.02 12 2.04 12 0 12 C0 8.04 0 4.08 0 0 Z " fill="#79ADEE" transform="translate(71,166)"/>
<path d="M0 0 C3.24667367 0.58284935 4.90423248 1.52085129 7.234375 3.8359375 C7.80800781 4.40570313 8.38164062 4.97546875 8.97265625 5.5625 C9.55917969 6.160625 10.14570313 6.75875 10.75 7.375 C11.35199219 7.96539062 11.95398438 8.55578125 12.57421875 9.1640625 C13.14269531 9.73640625 13.71117187 10.30875 14.296875 10.8984375 C15.07562988 11.68226807 15.07562988 11.68226807 15.87011719 12.48193359 C17 14 17 14 17 17 C13.75332633 16.41715065 12.09576752 15.47914871 9.765625 13.1640625 C8.90517578 12.30941406 8.90517578 12.30941406 8.02734375 11.4375 C7.44082031 10.839375 6.85429687 10.24125 6.25 9.625 C5.64800781 9.03460938 5.04601562 8.44421875 4.42578125 7.8359375 C3.85730469 7.26359375 3.28882813 6.69125 2.703125 6.1015625 C2.18395508 5.57900879 1.66478516 5.05645508 1.12988281 4.51806641 C0 3 0 3 0 0 Z " fill="#5390E6" transform="translate(129,113)"/>
<path d="M0 0 C0.66 0.99 1.32 1.98 2 3 C4.60741187 3.60283808 4.60741187 3.60283808 7.6640625 3.73046875 C8.78554687 3.81103516 9.90703125 3.89160156 11.0625 3.97460938 C12.238125 4.04486328 13.41375 4.11511719 14.625 4.1875 C15.80835937 4.26935547 16.99171875 4.35121094 18.2109375 4.43554688 C21.1400168 4.63633054 24.06934939 4.82390805 27 5 C23.74246076 6.93709638 21.34390072 7.23715445 17.578125 7.1953125 C16.04091797 7.18564453 16.04091797 7.18564453 14.47265625 7.17578125 C13.40917969 7.15902344 12.34570312 7.14226562 11.25 7.125 C9.63158203 7.11146484 9.63158203 7.11146484 7.98046875 7.09765625 C5.32008722 7.07411305 2.66015664 7.04122799 0 7 C-1.125 2.25 -1.125 2.25 0 0 Z " fill="#468DF0" transform="translate(85,122)"/>
<path d="M0 0 C1.588125 -0.061875 3.17625 -0.12375 4.8125 -0.1875 C6.15248047 -0.23970703 6.15248047 -0.23970703 7.51953125 -0.29296875 C10.41647515 0.04918998 11.22555028 0.75393573 13 3 C12.34 3 11.68 3 11 3 C11 4.32 11 5.64 11 7 C8.69 7 6.38 7 4 7 C4 5.68 4 4.36 4 3 C4.99 2.67 5.98 2.34 7 2 C4.03 1.505 4.03 1.505 1 1 C1 6.28 1 11.56 1 17 C-2.3 17 -5.6 17 -9 17 C-9 16.67 -9 16.34 -9 16 C-6.03 16 -3.06 16 0 16 C0 10.72 0 5.44 0 0 Z " fill="#88B9F8" transform="translate(97,94)"/>
<path d="M0 0 C1.98 0 3.96 0 6 0 C6.98248524 4.0527516 7.08159574 7.83861737 7 12 C6.401875 11.814375 5.80375 11.62875 5.1875 11.4375 C2.83591238 10.77906313 2.83591238 10.77906313 0 12 C0 8.04 0 4.08 0 0 Z " fill="#87AEE0" transform="translate(55,166)"/>
<path d="M0 0 C0.66 0 1.32 0 2 0 C2 0.99 2 1.98 2 3 C5.3 3 8.6 3 12 3 C12 7.29 12 11.58 12 16 C8.37 16 4.74 16 1 16 C0.67 10.72 0.34 5.44 0 0 Z M2 5 C2 8.3 2 11.6 2 15 C4.64 15 7.28 15 10 15 C10 11.7 10 8.4 10 5 C7.36 5 4.72 5 2 5 Z " fill="#CAE7FD" transform="translate(86,110)"/>
<path d="M0 0 C2.5 0.125 2.5 0.125 3.5 1.125 C3.77314815 6.86111111 3.77314815 6.86111111 3.5 9.125 C2.84 9.785 2.18 10.445 1.5 11.125 C-2.03571429 10.58928571 -2.03571429 10.58928571 -3.5 9.125 C-3.6328125 7.3125 -3.6328125 7.3125 -3.625 5.125 C-3.62757812 4.403125 -3.63015625 3.68125 -3.6328125 2.9375 C-3.42186711 0.05871588 -2.89175802 0.1445879 0 0 Z " fill="#73A8E8" transform="translate(66.5,166.875)"/>
<path d="M0 0 C7.26 0 14.52 0 22 0 C22 0.99 22 1.98 22 3 C14.74 3 7.48 3 0 3 C0 2.01 0 1.02 0 0 Z " fill="#4A8AE6" transform="translate(142,83)"/>
<path d="M0 0 C7.26 0 14.52 0 22 0 C22 0.99 22 1.98 22 3 C14.74 3 7.48 3 0 3 C0 2.01 0 1.02 0 0 Z " fill="#468CE7" transform="translate(36,83)"/>
<path d="M0 0 C0.33 0 0.66 0 1 0 C0.855625 1.216875 0.71125 2.43375 0.5625 3.6875 C-0.11863226 9.7787685 -0.55598069 15.88764914 -1 22 C-1.99 21.34 -2.98 20.68 -4 20 C-4.36328125 16.8828125 -4.36328125 16.8828125 -4.3125 13.125 C-4.30863281 11.89007813 -4.30476563 10.65515625 -4.30078125 9.3828125 C-4.02643534 6.29731179 -3.62700706 4.57987573 -2 2 C-1.34 2 -0.68 2 0 2 C0 1.34 0 0.68 0 0 Z " fill="#498EF0" transform="translate(74,68)"/>
<path d="M0 0 C9.24 0 18.48 0 28 0 C24.69711664 2.20192224 23.72537273 2.23959968 19.89453125 2.1953125 C18.91162109 2.18886719 17.92871094 2.18242187 16.91601562 2.17578125 C15.89185547 2.15902344 14.86769531 2.14226562 13.8125 2.125 C12.77673828 2.11597656 11.74097656 2.10695312 10.67382812 2.09765625 C8.11565315 2.0740786 5.55794252 2.0411703 3 2 C3.33 3.32 3.66 4.64 4 6 C3.34 6 2.68 6 2 6 C1.34 4.02 0.68 2.04 0 0 Z " fill="#CBE8FD" transform="translate(86,144)"/>
<path d="M0 0 C1.65 0 3.3 0 5 0 C6 1 6 1 6.1328125 2.8125 C6.13023438 3.534375 6.12765625 4.25625 6.125 5 C6.12757812 5.721875 6.13015625 6.44375 6.1328125 7.1875 C6 9 6 9 5 10 C3.35 10 1.7 10 0 10 C0 6.7 0 3.4 0 0 Z " fill="#6EA5E9" transform="translate(120,167)"/>
<path d="M0 0 C0.33 0.99 0.66 1.98 1 3 C1.66 3 2.32 3 3 3 C3.66 2.34 4.32 1.68 5 1 C5 4.63 5 8.26 5 12 C2.03 11.505 2.03 11.505 -1 11 C-1.125 3.375 -1.125 3.375 0 0 Z " fill="#EEFAFD" transform="translate(97,166)"/>
<path d="M0 0 C1.98 0 3.96 0 6 0 C6.33 1.32 6.66 2.64 7 4 C5.02 4.99 5.02 4.99 3 6 C3 7.65 3 9.3 3 11 C2.01 11 1.02 11 0 11 C0 7.37 0 3.74 0 0 Z " fill="#6D9FE3" transform="translate(47,167)"/>
<path d="M0 0 C1.2065625 0.0309375 1.2065625 0.0309375 2.4375 0.0625 C2.7675 1.0525 3.0975 2.0425 3.4375 3.0625 C2.7775 3.0625 2.1175 3.0625 1.4375 3.0625 C1.4375 2.4025 1.4375 1.7425 1.4375 1.0625 C0.7775 1.0625 0.1175 1.0625 -0.5625 1.0625 C-0.5625 3.7025 -0.5625 6.3425 -0.5625 9.0625 C0.0975 9.0625 0.7575 9.0625 1.4375 9.0625 C1.1075 7.7425 0.7775 6.4225 0.4375 5.0625 C1.4275 5.0625 2.4175 5.0625 3.4375 5.0625 C3.4375 7.0425 3.4375 9.0225 3.4375 11.0625 C1.0625 11.1875 1.0625 11.1875 -1.5625 11.0625 C-3.5625 9.0625 -3.5625 9.0625 -3.79296875 7.15234375 C-3.6519597 0.08907219 -3.6519597 0.08907219 0 0 Z " fill="#639AE3" transform="translate(86.5625,166.9375)"/>
<path d="M0 0 C1.98 0 3.96 0 6 0 C5.01 0.495 5.01 0.495 4 1 C4 4.3 4 7.6 4 11 C4.66 11.33 5.32 11.66 6 12 C4.02 12 2.04 12 0 12 C0 8.04 0 4.08 0 0 Z " fill="#97C0F1" transform="translate(102,166)"/>
<path d="M0 0 C5.94 0 11.88 0 18 0 C17.67 0.99 17.34 1.98 17 3 C11.72 3 6.44 3 1 3 C0.67 2.01 0.34 1.02 0 0 Z " fill="#3D8DF9" transform="translate(91,147)"/>
<path d="M0 0 C0.66 0 1.32 0 2 0 C2 1.32 2 2.64 2 4 C2.66 4 3.32 4 4 4 C4 2.68 4 1.36 4 0 C4.66 0 5.32 0 6 0 C6 3.3 6 6.6 6 10 C5.34 10 4.68 10 4 10 C4 8.68 4 7.36 4 6 C3.34 6 2.68 6 2 6 C2 7.65 2 9.3 2 11 C1.34 11 0.68 11 0 11 C0 7.37 0 3.74 0 0 Z " fill="#518EE4" transform="translate(148,167)"/>
<path d="M0 0 C1.32 0.33 2.64 0.66 4 1 C4 3.97 4 6.94 4 10 C4.66 10.33 5.32 10.66 6 11 C5.195625 10.979375 4.39125 10.95875 3.5625 10.9375 C1.06645115 10.70366379 1.06645115 10.70366379 0 12 C-1.66617115 12.04063832 -3.33388095 12.042721 -5 12 C-5 11.34 -5 10.68 -5 10 C-3.35 9.67 -1.7 9.34 0 9 C0 6.03 0 3.06 0 0 Z " fill="#C9E5FD" transform="translate(125,167)"/>
<path d="M0 0 C0.33 0 0.66 0 1 0 C1.33 3.63 1.66 7.26 2 11 C2.33 8.69 2.66 6.38 3 4 C3.33 4 3.66 4 4 4 C4.25 11.625 4.25 11.625 2 15 C-1.625 15.1875 -1.625 15.1875 -5 15 C-5 14.67 -5 14.34 -5 14 C-7.97 13.505 -7.97 13.505 -11 13 C-11 12.67 -11 12.34 -11 12 C-7.37 12 -3.74 12 0 12 C0 8.04 0 4.08 0 0 Z " fill="#5E97E6" transform="translate(113,114)"/>
<path d="M0 0 C2.91180862 4.36771293 3.12438648 7.55153591 3.0625 12.75 C3.05347656 13.73484375 3.04445313 14.7196875 3.03515625 15.734375 C3.02355469 16.48203125 3.01195313 17.2296875 3 18 C2.34 17.67 1.68 17.34 1 17 C0.34 17.66 -0.32 18.32 -1 19 C-1 15.7 -1 12.4 -1 9 C-0.67 9 -0.34 9 0 9 C0 6.03 0 3.06 0 0 Z " fill="#6099E7" transform="translate(84,107)"/>
<path d="M0 0 C0.66 0.99 1.32 1.98 2 3 C2.33 2.34 2.66 1.68 3 1 C3 5.30269952 0.7990429 6.8677377 -2 10 C-2.66 10.66 -3.32 11.32 -4 12 C-4.99 11.34 -5.98 10.68 -7 10 C-6.02223933 8.51990357 -5.0427506 7.04094856 -4.0625 5.5625 C-3.51722656 4.73878906 -2.97195312 3.91507813 -2.41015625 3.06640625 C-1 1 -1 1 0 0 Z " fill="#5292E8" transform="translate(79,59)"/>
<path d="M0 0 C1.98 0 3.96 0 6 0 C6 0.99 6 1.98 6 3 C5.34 3 4.68 3 4 3 C4 2.34 4 1.68 4 1 C3.34 1 2.68 1 2 1 C2 3.64 2 6.28 2 9 C2.66 9 3.32 9 4 9 C4 8.34 4 7.68 4 7 C4.66 7 5.32 7 6 7 C5.67 8.32 5.34 9.64 5 11 C3.35 10.67 1.7 10.34 0 10 C0 6.7 0 3.4 0 0 Z " fill="#5B92E1" transform="translate(140,167)"/>
<path d="M0 0 C0.99 0 1.98 0 3 0 C3 4.29 3 8.58 3 13 C2.01 13 1.02 13 0 13 C0 8.71 0 4.42 0 0 Z " fill="#5492E8" transform="translate(98,113)"/>
<path d="M0 0 C1.98 0 3.96 0 6 0 C7.26026798 2.52053595 6.91874445 3.8542098 6.5625 6.625 C6.46066406 7.44226563 6.35882813 8.25953125 6.25390625 9.1015625 C6.17011719 9.72804687 6.08632812 10.35453125 6 11 C4.68 11 3.36 11 2 11 C2 10.01 2 9.02 2 8 C2.66 8 3.32 8 4 8 C4 7.34 4 6.68 4 6 C3.34 6 2.68 6 2 6 C2 5.01 2 4.02 2 3 C2.99 3 3.98 3 5 3 C5 2.34 5 1.68 5 1 C3.35 1 1.7 1 0 1 C0 0.67 0 0.34 0 0 Z " fill="#DAF1FF" transform="translate(134,165)"/>
<path d="M0 0 C0.33 0 0.66 0 1 0 C1.20190089 6.35987804 0.6277833 11.85221129 -1 18 C-1.33 18 -1.66 18 -2 18 C-2 13.05 -2 8.1 -2 3 C-1.34 3 -0.68 3 0 3 C0 2.01 0 1.02 0 0 Z " fill="#458CEB" transform="translate(116,109)"/>
<path d="M0 0 C0.99 0 1.98 0 3 0 C3 3.96 3 7.92 3 12 C2.01 12 1.02 12 0 12 C0 8.04 0 4.08 0 0 Z " fill="#75A6EB" transform="translate(79,166)"/>
<path d="M0 0 C1.65 0 3.3 0 5 0 C6.17571451 3.67410785 6.07366746 7.16929183 6 11 C5.01 10.67 4.02 10.34 3 10 C3.33 7.03 3.66 4.06 4 1 C3.01 1 2.02 1 1 1 C1 3.64 1 6.28 1 9 C0.67 9 0.34 9 0 9 C0 6.03 0 3.06 0 0 Z " fill="#5F92DD" transform="translate(56,167)"/>
<path d="M0 0 C2 0 4 0 6 0 C5.34 3.3 4.68 6.6 4 10 C3.34 10 2.68 10 2 10 C1.34 6.7 0.68 3.4 0 0 Z " fill="#5D91DC" transform="translate(91,167)"/>
<path d="M0 0 C4.6875 3.515625 4.6875 3.515625 6 5 C6 6.32 6 7.64 6 9 C4.125 8.75 4.125 8.75 2 8 C-0.02755186 5.06004981 0 3.72295997 0 0 Z " fill="#619BE6" transform="translate(65,47)"/>
<path d="M0 0 C1.32 0.33 2.64 0.66 4 1 C3.34 1 2.68 1 2 1 C2 1.99 2 2.98 2 4 C2.66 4 3.32 4 4 4 C4 4.66 4 5.32 4 6 C3.34 6 2.68 6 2 6 C2 6.99 2 7.98 2 9 C2.99 9.33 3.98 9.66 5 10 C3.35 10 1.7 10 0 10 C0 6.7 0 3.4 0 0 Z " fill="#528FDE" transform="translate(134,167)"/>
<path d="M0 0 C0.99 0 1.98 0 3 0 C3.33 3.63 3.66 7.26 4 11 C2 10 2 10 0.875 7.1875 C0 4 0 4 0 0 Z " fill="#488DEE" transform="translate(81,106)"/>
<path d="M0 0 C1.32 0.33 2.64 0.66 4 1 C3.34 1 2.68 1 2 1 C2 1.99 2 2.98 2 4 C2.66 4 3.32 4 4 4 C4 4.66 4 5.32 4 6 C3.34 6 2.68 6 2 6 C2 7.32 2 8.64 2 10 C1.34 10 0.68 10 0 10 C0 6.7 0 3.4 0 0 Z " fill="#528EDB" transform="translate(114,167)"/>
<path d="M0 0 C0.99 0 1.98 0 3 0 C2.67 1.98 2.34 3.96 2 6 C-0.97 5.67 -3.94 5.34 -7 5 C-7 4.67 -7 4.34 -7 4 C-4.69 4 -2.38 4 0 4 C0 2.68 0 1.36 0 0 Z " fill="#5F9BE8" transform="translate(108,97)"/>
<path d="M0 0 C3.3 0 6.6 0 10 0 C10 0.99 10 1.98 10 3 C6.7 3 3.4 3 0 3 C0 2.01 0 1.02 0 0 Z " fill="#4C8CDF" transform="translate(36,83)"/>
<path d="M0 0 C3.465 1.98 3.465 1.98 7 4 C7 4.66 7 5.32 7 6 C5.68 6.33 4.36 6.66 3 7 C0 3.375 0 3.375 0 0 Z " fill="#DBF1FE" transform="translate(139,126)"/>
<path d="M0 0 C0.33 0.99 0.66 1.98 1 3 C0.67 3.66 0.34 4.32 0 5 C0.66 5.33 1.32 5.66 2 6 C0.75 7.5625 0.75 7.5625 -1 9 C-2.32 8.67 -3.64 8.34 -5 8 C-3.35 5.36 -1.7 2.72 0 0 Z " fill="#5996E7" transform="translate(124,92)"/>
<path d="M0 0 C0.66 0.33 1.32 0.66 2 1 C1.0925 1.598125 0.185 2.19625 -0.75 2.8125 C-3.22901481 4.48106766 -5.63317911 6.17936855 -8 8 C-8.66 7.67 -9.32 7.34 -10 7 C-8.90081184 6.01524786 -7.7954398 5.03739527 -6.6875 4.0625 C-6.07261719 3.51722656 -5.45773438 2.97195312 -4.82421875 2.41015625 C-3 1 -3 1 0 0 Z " fill="#DEF4FE" transform="translate(91,56)"/>
<path d="M0 0 C4.455 0.99 4.455 0.99 9 2 C9 2.66 9 3.32 9 4 C6.03 4 3.06 4 0 4 C0 2.68 0 1.36 0 0 Z " fill="#448CEE" transform="translate(99,100)"/>
<path d="M0 0 C1.64826111 2.96687001 2.44271087 5.65626525 3 9 C2.01 9 1.02 9 0 9 C-0.66 8.34 -1.32 7.68 -2 7 C-1.67 6.01 -1.34 5.02 -1 4 C-0.65772583 2.66893378 -0.32248257 1.33599921 0 0 Z " fill="#5995E7" transform="translate(73,85)"/>
<path d="M0 0 C0.66 0.99 1.32 1.98 2 3 C2.33 2.34 2.66 1.68 3 1 C3 1.99 3 2.98 3 4 C1 5.6875 1 5.6875 -1 7 C-1 6.01 -1 5.02 -1 4 C-1.66 3.67 -2.32 3.34 -3 3 C-2.01 2.01 -1.02 1.02 0 0 Z " fill="#669FED" transform="translate(79,59)"/>
<path d="M0 0 C2.62187494 1.04874998 3.79371361 1.64931313 5.25 4.125 C5.4975 4.74375 5.745 5.3625 6 6 C3.13275314 5.42655063 2.1385485 5.1385485 0 3 C0 2.01 0 1.02 0 0 Z " fill="#D8EEFE" transform="translate(60,48)"/>
<path d="M0 0 C0.33 0.99 0.66 1.98 1 3 C-0.32 4.32 -1.64 5.64 -3 7 C-3.33 5.68 -3.66 4.36 -4 3 C-2.68 2.01 -1.36 1.02 0 0 Z " fill="#478EEC" transform="translate(122,99)"/>
<path d="M0 0 C0 0.99 0 1.98 0 3 C-3.63 2.67 -7.26 2.34 -11 2 C-11 1.67 -11 1.34 -11 1 C-7.26513121 0.4254048 -3.78706732 0 0 0 Z " fill="#428BF4" transform="translate(50,83)"/>
<path d="M0 0 C0.99 0 1.98 0 3 0 C2.34 2.97 1.68 5.94 1 9 C0.67 9 0.34 9 0 9 C0 6.03 0 3.06 0 0 Z " fill="#89C0FA" transform="translate(57,168)"/>
<path d="M0 0 C0.66 0.99 1.32 1.98 2 3 C1.34 4.32 0.68 5.64 0 7 C-1.32 6.01 -2.64 5.02 -4 4 C-2.68 2.68 -1.36 1.36 0 0 Z " fill="#659CEC" transform="translate(62,119)"/>
<path d="M0 0 C1.98 0 3.96 0 6 0 C6 0.99 6 1.98 6 3 C4.02 3 2.04 3 0 3 C0 2.01 0 1.02 0 0 Z " fill="#E9FDFF" transform="translate(101,98)"/>
<path d="M0 0 C0.99 0 1.98 0 3 0 C3 1.65 3 3.3 3 5 C2.67 4.34 2.34 3.68 2 3 C1.34 3 0.68 3 0 3 C0 2.01 0 1.02 0 0 Z M0 5 C0.99 5.495 0.99 5.495 2 6 C1.34 7.32 0.68 8.64 0 10 C0 8.35 0 6.7 0 5 Z " fill="#DAF8FF" transform="translate(116,168)"/>
<path d="M0 0 C1.32 0 2.64 0 4 0 C3.6875 1.9375 3.6875 1.9375 3 4 C2.01 4.33 1.02 4.66 0 5 C0 3.35 0 1.7 0 0 Z " fill="#76AFEC" transform="translate(50,168)"/>
<path d="M0 0 C0.99 0.33 1.98 0.66 3 1 C3 1.66 3 2.32 3 3 C2.34 3 1.68 3 1 3 C1 4.32 1 5.64 1 7 C0.34 7 -0.32 7 -1 7 C-1.04254356 5.00045254 -1.04080783 2.99958364 -1 1 C-0.67 0.67 -0.34 0.34 0 0 Z " fill="#D6EFFE" transform="translate(151,164)"/>
</svg>
