<?xml version="1.0" encoding="UTF-8"?>
<svg version="1.1" xmlns="http://www.w3.org/2000/svg" width="100" height="100">
<path d="M0 0 C33 0 66 0 100 0 C100 33 100 66 100 100 C67 100 34 100 0 100 C0 67 0 34 0 0 Z " fill="#FEFEFD" transform="translate(0,0)"/>
<path d="M0 0 C2.475 0.495 2.475 0.495 5 1 C5.12375 1.886875 5.2475 2.77375 5.375 3.6875 C7.50554238 8.0305287 9.81093349 9.20071951 14.13671875 11.16015625 C18.91835628 12.56268295 23.17245914 11.89902561 28 11 C29.8253125 10.7215625 29.8253125 10.7215625 31.6875 10.4375 C32.450625 10.293125 33.21375 10.14875 34 10 C33.49701212 14.40114397 31.91227269 16.71195019 29 20 C29.66 20 30.32 20 31 20 C31.04241723 22.33294775 31.04092937 24.66702567 31 27 C30 28 30 28 27.0625 28.125 C24 28 24 28 22 27 C22.04125 27.9075 22.0825 28.815 22.125 29.75 C22.00468444 32.8782046 21.6085292 34.38614006 20 37 C19.34 37 18.68 37 18 37 C17.32942113 35.2097939 16.6636531 33.41778511 16 31.625 C15.62875 30.62726563 15.2575 29.62953125 14.875 28.6015625 C14 26 14 26 14 24 C10.77613305 22.94239659 8.85581097 23.11592907 5.625 24.0625 C1.48285505 25.09632461 -1.04324098 24.82619647 -5 23 C-7.63365987 27.9221313 -9.64475824 32.57903298 -11 38 C-14.10540628 34.89459372 -13.9652109 31.27210183 -14 27 C-13.55202345 24.51124137 -12.86466659 22.39054881 -12 20 C-12.87011719 19.76216797 -12.87011719 19.76216797 -13.7578125 19.51953125 C-19.25400285 17.87792984 -22.92700083 16.07299917 -27 12 C-27 11.34 -27 10.68 -27 10 C-25.79601562 10.01160156 -24.59203125 10.02320313 -23.3515625 10.03515625 C-21.77604321 10.04453434 -20.20052225 10.05363452 -18.625 10.0625 C-17.43390625 10.07506836 -17.43390625 10.07506836 -16.21875 10.08789062 C-11.97607778 10.23040151 -11.97607778 10.23040151 -8 9 C-6.33805547 8.64386903 -4.671549 8.30791692 -3 8 C-3.66 7.67 -4.32 7.34 -5 7 C-5 5.68 -5 4.36 -5 3 C-3.35 2.67 -1.7 2.34 0 2 C0 1.34 0 0.68 0 0 Z " fill="#F6F2F7" transform="translate(46,39)"/>
<path d="M0 0 C-0.50298788 4.40114397 -2.08772731 6.71195019 -5 10 C-4.34 10 -3.68 10 -3 10 C-2.95758277 12.33294775 -2.95907063 14.66702567 -3 17 C-4 18 -4 18 -6.9375 18.125 C-10 18 -10 18 -12 17 C-11.95875 17.9075 -11.9175 18.815 -11.875 19.75 C-11.99531556 22.8782046 -12.3914708 24.38614006 -14 27 C-14.66 27 -15.32 27 -16 27 C-16.81542431 24.91780951 -17.62723189 22.83420239 -18.4375 20.75 C-18.88996094 19.58984375 -19.34242187 18.4296875 -19.80859375 17.234375 C-21.65771892 12.21445487 -21.65771892 12.21445487 -22 10 C-20.6875 8.5625 -20.6875 8.5625 -19 7 C-18.29709223 5.34829092 -17.62638728 3.68221913 -17 2 C-16.24074219 1.93941406 -15.48148437 1.87882812 -14.69921875 1.81640625 C-13.70535156 1.73261719 -12.71148437 1.64882813 -11.6875 1.5625 C-10.70136719 1.48128906 -9.71523437 1.40007813 -8.69921875 1.31640625 C-5.61423387 0.95477995 -3.13154097 0 0 0 Z " fill="#F4CA2F" transform="translate(80,49)"/>
<path d="M0 0 C0 1.98 0 3.96 0 6 C0.70125 5.67 1.4025 5.34 2.125 5 C5.26003116 3.90955438 7.70563182 3.84677357 11 4 C10.61328125 4.43570312 10.2265625 4.87140625 9.828125 5.3203125 C6.56015499 9.05744652 3.65859411 12.8076016 1 17 C-10.29498348 17.42462344 -10.29498348 17.42462344 -14.3515625 14.03515625 C-16.08623072 11.75794286 -17.58303144 9.48514485 -19 7 C-19.66 6.01 -20.32 5.02 -21 4 C-17.7 4.33 -14.4 4.66 -11 5 C-10.67 4.01 -10.34 3.02 -10 2 C-6.3558226 -0.4294516 -4.28758728 -0.16179575 0 0 Z " fill="#EDBB26" transform="translate(55,19)"/>
<path d="M0 0 C1.65 0.33 3.3 0.66 5 1 C5.144375 1.886875 5.28875 2.77375 5.4375 3.6875 C7.69582757 8.47515446 11.3353661 9.83084926 16 12 C15.67 12.66 15.34 13.32 15 14 C12.525 12.515 12.525 12.515 10 11 C10.33 14.3 10.66 17.6 11 21 C7 18 7 18 6.390625 15.73828125 C6.34421875 14.93777344 6.2978125 14.13726562 6.25 13.3125 C6.19328125 12.50425781 6.1365625 11.69601563 6.078125 10.86328125 C6.03945313 9.94095703 6.03945313 9.94095703 6 9 C5.01 9 4.02 9 3 9 C2.34 9 1.68 9 1 9 C1.33 9.66 1.66 10.32 2 11 C2.66 11 3.32 11 4 11 C4.99 13.97 5.98 16.94 7 20 C3.37 20.33 -0.26 20.66 -4 21 C-3.505 16.545 -3.505 16.545 -3 12 C-4.65 12.33 -6.3 12.66 -8 13 C-6.35 11.35 -4.7 9.7 -3 8 C-3.66 7.67 -4.32 7.34 -5 7 C-5 5.68 -5 4.36 -5 3 C-3.35 2.67 -1.7 2.34 0 2 C0 1.34 0 0.68 0 0 Z " fill="#C7D7B5" transform="translate(46,39)"/>
<path d="M0 0 C5.28 0.66 10.56 1.32 16 2 C16.33 3.65 16.66 5.3 17 7 C17.66 7 18.32 7 19 7 C20.75 8.6875 20.75 8.6875 22 11 C21.2109375 13.25 21.2109375 13.25 20 16 C19.27818681 18.09958072 18.57013129 20.20393509 17.875 22.3125 C17.34519531 23.91544922 17.34519531 23.91544922 16.8046875 25.55078125 C16.53914063 26.35902344 16.27359375 27.16726562 16 28 C12.89459372 24.89459372 13.0347891 21.27210183 13 17 C13.44797655 14.51124137 14.13533341 12.39054881 15 10 C14.41992188 9.84144531 13.83984375 9.68289062 13.2421875 9.51953125 C7.74599715 7.87792984 4.07299917 6.07299917 0 2 C0 1.34 0 0.68 0 0 Z " fill="#EAB224" transform="translate(19,49)"/>
<path d="M0 0 C11.37458365 -0.89930822 11.37458365 -0.89930822 14.90625 1.0546875 C18.204558 4.77533982 19.29509927 9.22233951 20 14 C19.01 15.485 19.01 15.485 18 17 C8.51203501 12.06345733 8.51203501 12.06345733 6.375 7.625 C6.25125 6.75875 6.1275 5.8925 6 5 C5.34 5.66 4.68 6.32 4 7 C3.896875 6.21625 3.79375 5.4325 3.6875 4.625 C3.22404978 1.66954819 3.22404978 1.66954819 0 0 Z " fill="#EFE1EA" transform="translate(44,35)"/>
<path d="M0 0 C2 1 2 1 2.8125 2.875 C4.72047976 6.28927957 7.4179379 7.527436 11.10546875 8.62890625 C13.06110108 9.1238716 15.02995796 9.56592294 17 10 C16.4740625 11.670625 16.4740625 11.670625 15.9375 13.375 C14.65478068 18.38029639 15.23370247 22.94657843 16 28 C15.01 27.67 14.02 27.34 13 27 C13 24.36 13 21.72 13 19 C11.576875 19.0928125 11.576875 19.0928125 10.125 19.1875 C9.09375 19.125625 8.0625 19.06375 7 19 C4.5705484 15.3558226 4.83820425 13.28758728 5 9 C4.01 8.67 3.02 8.34 2 8 C1.67 7.01 1.34 6.02 1 5 C0.01 4.34 -0.98 3.68 -2 3 C-1.34 2.01 -0.68 1.02 0 0 Z " fill="#FDF5BF" transform="translate(18,48)"/>
<path d="M0 0 C0 3.51716303 -0.82445585 4.37121748 -3 7 C-2.34 7 -1.68 7 -1 7 C-0.95758277 9.33294775 -0.95907063 11.66702567 -1 14 C-2 15 -2 15 -4.9375 15.125 C-8 15 -8 15 -10 14 C-10 15.98 -10 17.96 -10 20 C-10.33 20 -10.66 20 -11 20 C-11.66 15.38 -12.32 10.76 -13 6 C-10.49348958 5.31640625 -7.98697917 4.6328125 -5.48046875 3.94921875 C-2.94752262 2.9799181 -1.7283504 2.04990396 0 0 Z " fill="#FBF3B8" transform="translate(78,52)"/>
<path d="M0 0 C0 1.98 0 3.96 0 6 C0.66 6.33 1.32 6.66 2 7 C0.02 8.98 -1.96 10.96 -4 13 C-8.2742558 11.4169423 -10.26531794 8.49431596 -13 5 C-12.34 5 -11.68 5 -11 5 C-10.67 4.01 -10.34 3.02 -10 2 C-6.3558226 -0.4294516 -4.28758728 -0.16179575 0 0 Z " fill="#FBF5C0" transform="translate(55,19)"/>
<path d="M0 0 C0.86625 0.928125 0.86625 0.928125 1.75 1.875 C3.80249821 3.81347053 5.43366582 4.90014249 8 6 C7.3125 7.9375 7.3125 7.9375 6 10 C3.375 10.75 3.375 10.75 1 11 C1 12.32 1 13.64 1 15 C1.99 15.33 2.98 15.66 4 16 C2 18 2 18 -0.375 18.0625 C-1.24125 18.041875 -2.1075 18.02125 -3 18 C-4.34332728 18.29044914 -5.68225804 18.60955794 -7 19 C-6.34 18.67 -5.68 18.34 -5 18 C-5.04125 17.071875 -5.0825 16.14375 -5.125 15.1875 C-5 12 -5 12 -3 9 C-2.34 9 -1.68 9 -1 9 C0.61949011 6.42786866 1.04408751 5.32330841 0.625 2.25 C0.41875 1.5075 0.2125 0.765 0 0 Z " fill="#FAFAF3" transform="translate(40,31)"/>
<path d="M0 0 C1.04449911 3.13349732 0.93423645 3.98968256 0 7 C0.66 7 1.32 7 2 7 C2.99 9.97 3.98 12.94 5 16 C1.37 16.33 -2.26 16.66 -6 17 C-5.67 14.03 -5.34 11.06 -5 8 C-6.65 8.33 -8.3 8.66 -10 9 C-7.23129521 6.02620597 -4.47740928 4.06764876 -1 2 C-0.67 1.34 -0.34 0.68 0 0 Z " fill="#B9D3CF" transform="translate(48,43)"/>
<path d="M0 0 C0.99 0.66 1.98 1.32 3 2 C3.99 2 4.98 2 6 2 C6.33 2.33 6.66 2.66 7 3 C6.81932155 5.30816714 6.48002249 7.57893166 6.15625 9.87109375 C5.81361475 12.05346605 5.81361475 12.05346605 7 14 C4.37812506 12.95125002 3.20628639 12.35068687 1.75 9.875 C1.5025 9.25625 1.255 8.6375 1 8 C0.34 8 -0.32 8 -1 8 C-1.33 6.68 -1.66 5.36 -2 4 C-4.97 3.67 -7.94 3.34 -11 3 C-11 2.67 -11 2.34 -11 2 C-10.28972656 1.93941406 -9.57945313 1.87882812 -8.84765625 1.81640625 C-7.46900391 1.69072266 -7.46900391 1.69072266 -6.0625 1.5625 C-5.14597656 1.48128906 -4.22945312 1.40007813 -3.28515625 1.31640625 C-1.03840268 1.23955024 -1.03840268 1.23955024 0 0 Z " fill="#EAF2D4" transform="translate(37,48)"/>
<path d="M0 0 C5.28 0.66 10.56 1.32 16 2 C16 3.65 16 5.3 16 7 C5.7344315 6.15012723 5.7344315 6.15012723 2 4 C1.34 2.68 0.68 1.36 0 0 Z " fill="#E7BA44" transform="translate(19,49)"/>
<path d="M0 0 C2.59436983 0.99370273 3.7671861 1.55706526 5.08203125 4.05859375 C5.32308594 4.84363281 5.56414062 5.62867188 5.8125 6.4375 C6.06644531 7.21996094 6.32039063 8.00242187 6.58203125 8.80859375 C7 11 7 11 6 14 C5.34 14 4.68 14 4 14 C3.13116294 12.42466914 2.28040932 10.83935491 1.4375 9.25 C0.96183594 8.36828125 0.48617187 7.4865625 -0.00390625 6.578125 C-1.07998186 3.79298812 -1.06528748 2.73019786 0 0 Z " fill="#E8B135" transform="translate(59,58)"/>
<path d="M0 0 C0.680625 0.7425 1.36125 1.485 2.0625 2.25 C5.03073132 5.24381953 8.28714872 7.03437285 12 9 C11.67 9.66 11.34 10.32 11 11 C9.35 10.01 7.7 9.02 6 8 C6.33 11.3 6.66 14.6 7 18 C3 15 3 15 2.4609375 12.84375 C2.43257812 12.0703125 2.40421875 11.296875 2.375 10.5 C2.22208921 6.97128942 2.06409375 6.09614062 0 3 C0 2.01 0 1.02 0 0 Z " fill="#8E3EA1" transform="translate(50,42)"/>
<path d="M0 0 C0 1.98 0 3.96 0 6 C-2.31 6 -4.62 6 -7 6 C-7.33 4.02 -7.66 2.04 -8 0 C-4.71023192 -1.09658936 -3.28696233 -0.79953138 0 0 Z " fill="#EFCF38" transform="translate(31,60)"/>
<path d="M0 0 C0 3 0 3 -1.9375 5.0625 C-5.82680512 7.52308079 -9.50534105 8.25578632 -14 9 C-13.34 8.67 -12.68 8.34 -12 8 C-12 7.34 -12 6.68 -12 6 C-10.02 6 -8.04 6 -6 6 C-6 5.01 -6 4.02 -6 3 C-9.63 3 -13.26 3 -17 3 C-17 2.67 -17 2.34 -17 2 C-16.24074219 1.93941406 -15.48148437 1.87882812 -14.69921875 1.81640625 C-13.70535156 1.73261719 -12.71148437 1.64882813 -11.6875 1.5625 C-10.70136719 1.48128906 -9.71523437 1.40007813 -8.69921875 1.31640625 C-5.61423387 0.95477995 -3.13154097 0 0 0 Z " fill="#E9C44E" transform="translate(80,49)"/>
<path d="M0 0 C1.4540625 0.0309375 1.4540625 0.0309375 2.9375 0.0625 C3.5625 2.4375 3.5625 2.4375 3.9375 5.0625 C3.2775 5.7225 2.6175 6.3825 1.9375 7.0625 C-1.1875 6.6875 -1.1875 6.6875 -4.0625 6.0625 C-4.105221 4.39638095 -4.10313832 2.72867115 -4.0625 1.0625 C-3.0625 0.0625 -3.0625 0.0625 0 0 Z " fill="#F0CD34" transform="translate(50.0625,19.9375)"/>
<path d="M0 0 C2.5 0.125 2.5 0.125 3.5 1.125 C3.54063832 2.79117115 3.542721 4.45888095 3.5 6.125 C1.1875 6.75 1.1875 6.75 -1.5 7.125 C-2.49 6.465 -3.48 5.805 -4.5 5.125 C-3.38091354 0.16904568 -3.38091354 0.16904568 0 0 Z " fill="#F2CD30" transform="translate(72.5,58.875)"/>
<path d="M0 0 C1.99609987 1.66075509 2.91255951 2.57285709 3.44140625 5.15625 C3.48136719 5.9296875 3.52132812 6.703125 3.5625 7.5 C3.75523855 11.00433726 3.95299625 11.92949437 6 15 C4.02 15 2.04 15 0 15 C0.66 14.34 1.32 13.68 2 13 C1.67 12.05125 1.34 11.1025 1 10.125 C0 7 0 7 0 5 C-0.99 5.33 -1.98 5.66 -3 6 C-3 3 -3 3 -1.5 1.3125 C-0.7575 0.6628125 -0.7575 0.6628125 0 0 Z " fill="#EFDDFB" transform="translate(50,45)"/>
<path d="M0 0 C0.33 0.99 0.66 1.98 1 3 C0.34 3.66 -0.32 4.32 -1 5 C-1.38639454 7.10340456 -1.38639454 7.10340456 -1.5 9.4375 C-1.73068183 12.93809684 -1.96150563 13.94225845 -4 17 C-4.66 16.67 -5.32 16.34 -6 16 C-5.67 13.36 -5.34 10.72 -5 8 C-6.65 8.33 -8.3 8.66 -10 9 C-7.23129521 6.02620597 -4.47740928 4.06764876 -1 2 C-0.67 1.34 -0.34 0.68 0 0 Z " fill="#648841" transform="translate(48,43)"/>
<path d="M0 0 C0.33 1.32 0.66 2.64 1 4 C1.66 4 2.32 4 3 4 C3.33 4.99 3.66 5.98 4 7 C3.01 7.33 2.02 7.66 1 8 C0.01 9.485 0.01 9.485 -1 11 C-1 9.68 -1 8.36 -1 7 C-1.95712891 6.70996094 -1.95712891 6.70996094 -2.93359375 6.4140625 C-4.17302734 6.02347656 -4.17302734 6.02347656 -5.4375 5.625 C-6.26121094 5.36976562 -7.08492187 5.11453125 -7.93359375 4.8515625 C-10 4 -10 4 -11 2 C-7.37 2.66 -3.74 3.32 0 4 C0 2.68 0 1.36 0 0 Z " fill="#F0CE4A" transform="translate(35,52)"/>
<path d="M0 0 C3.63 0 7.26 0 11 0 C11 0.99 11 1.98 11 3 C7.37 3.33 3.74 3.66 0 4 C0 2.68 0 1.36 0 0 Z " fill="#F2B20C" transform="translate(63,52)"/>
<path d="M0 0 C2.6875 -0.3125 2.6875 -0.3125 6 0 C8.875 2.5 8.875 2.5 11 5 C9.68 4.67 8.36 4.34 7 4 C7.33 5.65 7.66 7.3 8 9 C5.06799526 6.14723863 2.35684596 3.34920216 0 0 Z " fill="#EEBB2F" transform="translate(34,23)"/>
<path d="M0 0 C0.33 1.65 0.66 3.3 1 5 C-1.375 6.5625 -1.375 6.5625 -4 8 C-4.66 7.67 -5.32 7.34 -6 7 C-4.68 5.68 -3.36 4.36 -2 3 C-3.65 2.67 -5.3 2.34 -7 2 C-5.26578631 -1.46842738 -3.40984787 -1.13661596 0 0 Z " fill="#FEFBE1" transform="translate(67,21)"/>
<path d="M0 0 C2 1 2 1 2.6875 2.8125 C4.70178966 6.16964944 7.55423331 7.21330616 11 9 C9.3125 10.1875 9.3125 10.1875 7 11 C4.3125 9.8125 4.3125 9.8125 2 8 C1.67 7.01 1.34 6.02 1 5 C0.01 4.34 -0.98 3.68 -2 3 C-1.34 2.01 -0.68 1.02 0 0 Z " fill="#FCF9D7" transform="translate(18,48)"/>
<path d="M0 0 C2.97 0 5.94 0 9 0 C9 1.32 9 2.64 9 4 C6.03 3.67 3.06 3.34 0 3 C0 2.01 0 1.02 0 0 Z " fill="#F2B40C" transform="translate(26,52)"/>
<path d="M0 0 C1.9375 0.3125 1.9375 0.3125 4 1 C4.33 1.99 4.66 2.98 5 4 C5.66 4.33 6.32 4.66 7 5 C7 5.66 7 6.32 7 7 C5.35 7 3.7 7 2 7 C0.5393715 4.35261084 0 3.10551666 0 0 Z " fill="#F4B30E" transform="translate(41,27)"/>
<path d="M0 0 C0.99 0.66 1.98 1.32 3 2 C2.67 2.99 2.34 3.98 2 5 C1.34 5 0.68 5 0 5 C-0.33 5.99 -0.66 6.98 -1 8 C-1.33 6.68 -1.66 5.36 -2 4 C-4.97 3.67 -7.94 3.34 -11 3 C-11 2.67 -11 2.34 -11 2 C-10.28972656 1.93941406 -9.57945313 1.87882812 -8.84765625 1.81640625 C-7.46900391 1.69072266 -7.46900391 1.69072266 -6.0625 1.5625 C-5.14597656 1.48128906 -4.22945312 1.40007813 -3.28515625 1.31640625 C-1.03840268 1.23955024 -1.03840268 1.23955024 0 0 Z " fill="#F1EEC5" transform="translate(37,48)"/>
<path d="M0 0 C0.33 0 0.66 0 1 0 C1.144375 1.2375 1.28875 2.475 1.4375 3.75 C1.71549453 6.06389568 2.03806239 8.13148826 2.6875 10.375 C2.790625 10.91125 2.89375 11.4475 3 12 C2.34 12.66 1.68 13.32 1 14 C-1.61895048 9.22426677 -0.83119431 5.15565119 0 0 Z " fill="#ECC750" transform="translate(33,63)"/>
<path d="M0 0 C-1.32 1.32 -2.64 2.64 -4 4 C-4 3.34 -4 2.68 -4 2 C-4.7425 2.45375 -5.485 2.9075 -6.25 3.375 C-8.46930578 4.68640796 -10.67967822 5.88280803 -13 7 C-7.21363636 -0.15681818 -7.21363636 -0.15681818 0 0 Z " fill="#EAC856" transform="translate(66,23)"/>
<path d="M0 0 C2.475 0.495 2.475 0.495 5 1 C4.6875 2.875 4.6875 2.875 4 5 C3.01 5.66 2.02 6.32 1 7 C0.67 4.69 0.34 2.38 0 0 Z " fill="#FDF8E9" transform="translate(57,52)"/>
<path d="M0 0 C3.83345405 2.78796658 4.22497639 6.5612284 5 11 C4.34 11.66 3.68 12.32 3 13 C2.49487756 11.39743892 1.99608373 9.79288208 1.5 8.1875 C1.2215625 7.29417969 0.943125 6.40085937 0.65625 5.48046875 C0 3 0 3 0 0 Z " fill="#F5B206" transform="translate(61,59)"/>
<path d="M0 0 C0.33 0 0.66 0 1 0 C1.02698189 1.62490954 1.04638757 3.24994633 1.0625 4.875 C1.07410156 5.77992187 1.08570312 6.68484375 1.09765625 7.6171875 C1 10 1 10 0 12 C-0.66 12 -1.32 12 -2 12 C-1.33333333 8 -0.66666667 4 0 0 Z " fill="#E8C54F" transform="translate(66,64)"/>
<path d="M0 0 C0.66 0 1.32 0 2 0 C2.25 6.625 2.25 6.625 0 10 C-0.66 9.67 -1.32 9.34 -2 9 C-1.34 6.03 -0.68 3.06 0 0 Z " fill="#598A32" transform="translate(44,50)"/>
<path d="M0 0 C5.53846154 -0.36923077 5.53846154 -0.36923077 7.875 1.5 C8.24625 1.995 8.6175 2.49 9 3 C7.35 2.67 5.7 2.34 4 2 C3.67 2.66 3.34 3.32 3 4 C2.01 2.68 1.02 1.36 0 0 Z " fill="#E6C85D" transform="translate(34,23)"/>
<path d="M0 0 C0.66 0 1.32 0 2 0 C1.67 2.31 1.34 4.62 1 7 C0.34 7 -0.32 7 -1 7 C-1.04254356 5.00045254 -1.04080783 2.99958364 -1 1 C-0.67 0.67 -0.34 0.34 0 0 Z " fill="#F8B708" transform="translate(36,59)"/>
<path d="M0 0 C1.65 0 3.3 0 5 0 C4.34 1.65 3.68 3.3 3 5 C2.34 5 1.68 5 1 5 C0.67 3.35 0.34 1.7 0 0 Z " fill="#FEFBD4" transform="translate(65,58)"/>
<path d="M0 0 C0.99 0.33 1.98 0.66 3 1 C2.67 2.32 2.34 3.64 2 5 C0.68 4.67 -0.64 4.34 -2 4 C-2 3.01 -2 2.02 -2 1 C-1.34 0.67 -0.68 0.34 0 0 Z " fill="#FDFDF5" transform="translate(39,52)"/>
<path d="M0 0 C2 2 2 2 2 6 C0.35 6 -1.3 6 -3 6 C-3 3 -3 3 -1.5 1.3125 C-0.7575 0.6628125 -0.7575 0.6628125 0 0 Z " fill="#F9F2FC" transform="translate(50,45)"/>
<path d="M0 0 C2 2 2 2 2.125 5.125 C2.08375 6.07375 2.0425 7.0225 2 8 C1.01 8 0.02 8 -1 8 C-1.125 2.25 -1.125 2.25 0 0 Z " fill="#618CB7" transform="translate(49,50)"/>
</svg>
